<?xml version="1.0" standalone="no"?>
<!DOCTYPE svg PUBLIC "-//W3C//DTD SVG 20010904//EN"
 "http://www.w3.org/TR/2001/REC-SVG-20010904/DTD/svg10.dtd">
<svg version="1.0" xmlns="http://www.w3.org/2000/svg"
 width="1401.000000pt" height="1185.000000pt" viewBox="0 0 1401.000000 1185.000000"
 preserveAspectRatio="xMidYMid meet">
<metadata>
Created by potrace 1.15, written by Peter Selinger 2001-2017
</metadata>
<g transform="translate(0.000000,1185.000000) scale(0.100000,-0.100000)"
fill="#000000" stroke="none">
<path d="M5923 11067 c-18 -6 -33 -15 -33 -19 0 -4 -7 -8 -15 -8 -37 0 -112
-106 -131 -185 -14 -62 -3 -215 17 -215 5 0 9 -7 9 -15 0 -18 48 -70 57 -62 3
4 -2 14 -11 23 -9 9 -20 29 -23 45 -3 16 -9 29 -14 29 -12 0 -12 145 0 168 5
9 15 30 22 45 14 30 39 59 77 90 24 18 112 24 112 7 0 -5 -4 -10 -10 -10 -5 0
-10 -16 -10 -35 0 -84 102 -114 167 -49 15 15 18 124 3 124 -5 0 -10 7 -10 15
0 8 -20 26 -43 40 -47 27 -105 31 -164 12z"/>
<path d="M7431 11065 c-50 -28 -81 -71 -81 -114 0 -52 15 -83 47 -98 43 -21
87 -16 113 12 19 20 22 32 18 70 l-6 45 44 0 c24 0 44 -4 44 -10 0 -5 7 -10
14 -10 8 0 28 -17 43 -37 15 -21 31 -39 36 -41 4 -2 7 -12 7 -22 0 -10 5 -22
10 -25 14 -9 12 -152 -2 -194 -7 -20 -21 -44 -32 -54 -11 -9 -17 -20 -13 -23
14 -14 77 72 77 105 0 11 5 23 10 26 14 8 13 120 -2 164 -22 70 -39 100 -76
138 -35 36 -51 46 -115 72 -37 15 -106 12 -136 -4z"/>
<path d="M6737 11015 c-28 -27 -67 -132 -67 -177 0 -24 -3 -25 -32 -19 -53 10
-95 2 -122 -26 -31 -31 -33 -53 -6 -53 11 0 20 -4 20 -10 0 -5 11 -10 24 -10
15 0 43 -19 77 -53 52 -51 67 -71 96 -129 22 -43 31 -42 50 2 10 22 21 40 25
40 5 0 8 6 8 13 0 18 78 99 110 114 14 6 40 17 58 25 39 16 41 33 5 65 -25 21
-36 24 -90 21 l-63 -4 0 43 c0 24 -4 43 -10 43 -5 0 -10 14 -10 30 0 17 -4 30
-10 30 -5 0 -10 7 -10 15 0 9 -8 25 -19 36 -17 18 -20 19 -34 4z"/>
<path d="M5250 11010 c-8 -5 -25 -10 -37 -10 -13 0 -23 -4 -23 -10 0 -5 -6
-10 -14 -10 -19 0 -106 -87 -106 -106 0 -8 -4 -14 -10 -14 -5 0 -10 -11 -10
-24 0 -14 -4 -28 -10 -31 -22 -14 -1 -185 22 -185 5 0 8 -6 8 -14 0 -19 107
-126 126 -126 8 0 14 -4 14 -10 0 -5 6 -10 13 -10 8 0 29 -8 48 -17 l34 -18
-27 -3 c-16 -2 -28 -8 -28 -13 0 -5 -13 -9 -30 -9 -16 0 -30 -4 -30 -10 0 -5
-9 -10 -20 -10 -11 0 -20 -3 -20 -8 0 -4 -18 -18 -39 -32 -22 -13 -46 -35 -53
-49 -7 -15 -19 -32 -26 -40 -7 -7 -16 -26 -19 -42 -3 -16 -10 -32 -14 -35 -12
-7 -11 -74 1 -74 6 0 10 -7 10 -16 0 -18 15 -34 52 -53 22 -11 33 -11 56 -2
42 18 59 53 44 95 -15 42 -15 81 1 109 18 33 117 127 133 127 8 0 14 5 14 10
0 6 9 10 19 10 11 0 23 5 26 10 3 6 17 10 31 10 13 0 24 4 24 9 0 6 46 12 103
15 56 3 128 8 160 11 31 4 57 4 57 0 0 -23 -90 -75 -130 -75 -17 0 -30 -4 -30
-10 0 -5 -7 -10 -15 -10 -18 0 -57 -36 -74 -68 -16 -31 -14 -120 4 -138 13
-14 16 -13 22 3 10 25 29 43 47 43 9 0 16 5 16 10 0 6 14 10 30 10 17 0 30 5
30 10 0 6 8 10 18 10 48 1 102 85 102 161 0 65 14 79 80 79 28 0 60 5 71 11
11 5 27 9 36 7 11 -2 8 -10 -15 -34 -54 -57 -66 -101 -37 -131 14 -14 17 -13
33 4 9 11 28 26 41 33 41 21 91 72 91 92 0 11 7 18 19 18 11 0 21 5 23 12 5
14 171 13 176 -2 2 -6 17 -10 33 -10 16 0 29 -4 29 -10 0 -5 7 -10 15 -10 8 0
25 -5 38 -12 68 -35 78 -36 52 -8 -10 11 -24 20 -32 20 -7 0 -13 5 -13 10 0 6
-9 10 -19 10 -11 0 -23 5 -26 10 -3 6 -17 10 -30 10 -13 0 -27 5 -30 10 -3 6
-27 10 -53 10 -61 0 -105 13 -133 39 -13 12 -28 21 -34 21 -7 0 -23 12 -36 28
-27 31 -61 52 -84 52 -8 0 -15 5 -15 10 0 6 -8 10 -19 10 -11 0 -21 9 -24 21
-5 20 -7 20 -21 6 -47 -46 13 -140 97 -152 65 -10 65 -35 -1 -35 -26 0 -52 -4
-57 -9 -6 -5 -37 -12 -70 -15 -137 -13 -242 -24 -278 -31 -54 -11 -267 27
-267 47 0 4 -9 8 -20 8 -11 0 -20 5 -20 10 0 6 -6 10 -13 10 -19 0 -87 65 -87
84 0 9 -4 16 -10 16 -5 0 -10 9 -10 20 0 10 -5 31 -12 45 -35 77 87 214 162
181 41 -17 55 -37 55 -77 0 -29 -7 -43 -27 -61 -29 -24 -27 -35 9 -55 27 -15
93 -17 93 -3 0 6 7 10 15 10 9 0 27 11 40 25 14 13 25 31 25 40 0 8 5 15 10
15 6 0 10 27 10 63 0 55 -4 67 -35 110 -20 26 -42 47 -50 47 -8 0 -15 3 -15 8
0 11 -74 32 -112 32 -18 0 -40 -5 -48 -10z"/>
<path d="M8150 11010 c-8 -5 -23 -10 -34 -10 -19 0 -92 -68 -113 -107 -14 -24
-18 -133 -5 -133 4 0 13 -13 20 -29 7 -17 26 -36 43 -43 16 -7 29 -16 29 -20
0 -12 69 -9 93 3 33 18 50 49 26 49 -22 0 -39 30 -39 70 0 44 10 59 49 76 47
20 151 -39 151 -86 0 -10 5 -22 10 -25 12 -8 13 -69 1 -93 -5 -9 -15 -30 -22
-47 -18 -38 -74 -95 -94 -95 -8 0 -15 -3 -15 -8 0 -16 -92 -45 -199 -63 -57
-10 -86 -10 -130 -1 -32 7 -84 12 -117 12 -33 0 -64 4 -69 9 -6 5 -37 12 -70
15 -155 15 -175 18 -175 31 0 8 19 16 49 20 67 9 111 53 111 109 0 35 -23 56
-37 33 -11 -16 -49 -37 -68 -37 -8 0 -15 -4 -15 -10 0 -5 -7 -10 -16 -10 -16
0 -54 -36 -54 -50 0 -5 -11 -11 -25 -14 -13 -3 -33 -15 -43 -26 -12 -13 -37
-21 -77 -25 -64 -6 -129 -21 -157 -36 -10 -5 -25 -9 -33 -9 -8 0 -15 -4 -15
-10 0 -5 -6 -10 -13 -10 -7 0 -18 -9 -25 -20 -7 -11 -10 -20 -7 -20 2 0 20 9
40 20 20 11 42 20 50 20 8 0 15 5 15 10 0 6 13 10 29 10 16 0 31 4 33 10 5 15
171 16 176 2 2 -7 12 -12 23 -12 11 0 19 -7 19 -16 0 -17 61 -84 77 -84 13 0
63 -46 63 -59 0 -18 18 -13 30 8 20 38 11 76 -26 120 -39 46 -39 61 1 43 14
-7 50 -12 78 -12 29 0 58 -5 65 -12 7 -7 12 -36 12 -64 0 -29 5 -56 10 -59 6
-3 10 -13 10 -22 0 -20 64 -83 84 -83 9 0 16 -4 16 -10 0 -5 14 -10 30 -10 17
0 30 -4 30 -10 0 -5 7 -10 16 -10 9 0 27 -12 39 -26 32 -38 45 -23 45 53 0 61
-2 67 -34 99 -19 19 -41 34 -50 34 -9 0 -16 5 -16 10 0 6 -11 10 -25 10 -40 0
-135 53 -135 75 0 4 26 4 58 0 31 -3 102 -8 157 -11 55 -3 104 -10 110 -15 5
-5 19 -9 32 -9 13 0 23 -4 23 -10 0 -5 9 -10 20 -10 11 0 20 -4 20 -10 0 -5 7
-10 15 -10 8 0 29 -13 47 -30 17 -16 34 -30 38 -30 4 0 19 -18 34 -40 19 -29
26 -52 26 -90 0 -27 -4 -50 -10 -50 -29 0 5 -73 42 -89 42 -19 85 2 116 56 21
39 8 126 -25 161 -7 7 -13 18 -13 23 0 14 -81 89 -96 89 -8 0 -14 5 -14 10 0
6 -9 10 -20 10 -11 0 -20 5 -20 10 0 6 -11 10 -24 10 -14 0 -28 5 -31 10 -3 6
-15 10 -26 10 -10 0 -19 5 -19 10 0 6 9 10 20 10 11 0 20 5 20 10 0 6 9 10 20
10 11 0 20 5 20 10 0 6 7 10 15 10 17 0 112 92 133 128 6 12 12 29 12 37 0 8
5 15 10 15 6 0 10 31 10 74 0 41 -4 78 -10 81 -5 3 -10 15 -10 26 0 10 -4 19
-10 19 -5 0 -10 7 -10 15 0 20 -85 105 -105 105 -8 0 -15 4 -15 9 0 18 -138
36 -160 21z"/>
<path d="M4662 10848 c-27 -27 -10 -104 30 -139 10 -9 18 -20 18 -25 0 -5 14
-25 30 -44 16 -19 30 -41 30 -47 0 -7 5 -13 10 -13 6 0 10 -7 10 -16 0 -20 29
-49 38 -39 4 4 1 10 -5 12 -7 3 -13 21 -13 42 0 20 -4 41 -9 47 -5 5 -12 34
-14 64 -9 89 -18 122 -43 147 -25 25 -63 30 -82 11z"/>
<path d="M8755 10834 c-19 -26 -29 -62 -41 -154 -3 -25 -9 -56 -14 -70 -5 -14
-11 -40 -14 -58 -8 -46 8 -29 58 63 6 11 19 27 29 36 9 9 17 21 17 26 0 6 14
24 31 42 27 28 30 37 27 84 -3 52 -3 52 -38 55 -28 2 -39 -2 -55 -24z"/>
<path d="M4872 10715 c-19 -22 -22 -37 -22 -109 0 -47 5 -88 10 -91 6 -3 10
-22 10 -41 0 -19 5 -34 10 -34 6 0 10 -13 10 -30 0 -16 5 -30 10 -30 6 0 10
14 10 30 0 17 -4 30 -10 30 -6 0 -10 39 -10 96 0 95 9 124 40 124 15 0 40 25
40 40 0 19 -27 40 -52 40 -14 0 -34 -11 -46 -25z"/>
<path d="M8545 10720 c-9 -27 3 -60 21 -60 36 0 44 -26 44 -134 0 -64 -4 -106
-10 -106 -5 0 -10 -15 -9 -32 0 -32 1 -33 11 -8 5 14 14 33 19 42 5 10 9 31 9
47 0 17 5 33 10 36 6 3 10 48 10 101 0 106 -14 134 -69 134 -21 0 -32 -6 -36
-20z"/>
<path d="M6395 10681 c-32 -19 -52 -59 -42 -85 7 -18 77 -23 77 -6 0 6 8 10
18 10 10 0 23 5 29 11 11 11 93 -9 93 -23 0 -5 6 -8 14 -8 12 0 34 -21 89 -89
9 -12 17 -28 17 -36 0 -8 5 -15 10 -15 6 0 10 -9 10 -20 0 -11 5 -20 10 -20 6
0 10 11 10 24 0 14 -4 28 -10 31 -5 3 -10 17 -10 30 0 13 -4 27 -10 30 -5 3
-10 15 -10 26 0 10 -4 19 -10 19 -5 0 -10 6 -10 13 0 19 -65 87 -84 87 -9 0
-16 5 -16 10 0 6 -11 10 -24 10 -14 0 -28 5 -31 10 -10 16 -87 10 -120 -9z"/>
<path d="M6985 10690 c-3 -5 -17 -10 -31 -10 -13 0 -24 -3 -24 -8 0 -4 -12
-13 -27 -20 -29 -12 -93 -100 -93 -126 0 -8 -4 -18 -10 -21 -5 -3 -10 -16 -10
-29 0 -12 -5 -27 -11 -33 -6 -6 -9 -21 -7 -34 3 -21 7 -17 27 25 31 65 125
159 177 175 36 12 44 11 77 -8 21 -12 51 -21 67 -21 27 0 30 3 30 33 -1 37
-20 67 -43 67 -9 0 -19 5 -22 10 -3 6 -26 10 -50 10 -24 0 -47 -4 -50 -10z"/>
<path d="M4222 10624 c-60 -18 -128 -63 -144 -94 -7 -14 -15 -27 -18 -30 -10
-10 -30 -77 -30 -103 0 -14 5 -29 10 -32 6 -3 10 -16 10 -29 0 -12 15 -38 33
-57 77 -82 202 -76 248 12 26 51 20 74 -15 58 -46 -22 -106 26 -106 84 0 10
15 34 34 53 30 30 40 34 85 34 28 0 61 -6 73 -12 35 -20 78 -68 94 -106 16
-39 19 -158 4 -167 -5 -3 -10 -17 -10 -31 0 -13 -4 -24 -10 -24 -5 0 -10 -9
-10 -20 0 -11 -4 -20 -10 -20 -5 0 -10 -7 -10 -15 0 -8 -12 -29 -27 -47 -64
-74 -219 -218 -235 -218 -5 0 -22 -13 -40 -30 -17 -16 -35 -30 -40 -30 -4 0
-22 -13 -40 -30 -17 -16 -36 -30 -42 -30 -6 0 -18 -9 -26 -20 -8 -11 -22 -20
-32 -20 -23 0 -23 6 2 32 11 12 20 28 20 35 0 7 5 13 10 13 14 0 12 66 -2 92
-31 54 -68 66 -68 23 0 -14 -4 -33 -9 -43 -23 -45 -30 -71 -35 -122 -8 -96
-13 -122 -22 -128 -6 -4 -21 -23 -34 -42 -13 -19 -27 -37 -30 -40 -11 -10 -50
-92 -50 -105 0 -7 -5 -15 -11 -17 -6 -2 -9 -19 -7 -38 4 -37 4 -37 27 25 10
26 44 93 62 124 19 33 76 91 89 91 6 0 19 5 29 12 15 9 28 9 61 -2 33 -11 46
-11 61 -2 10 7 44 12 74 12 46 0 55 3 55 18 -1 37 -64 82 -115 82 -14 0 -25 3
-25 6 0 9 53 54 64 54 5 0 16 8 25 18 29 34 48 33 87 -4 21 -19 44 -34 51 -34
7 0 13 -4 13 -10 0 -6 28 -10 63 -10 49 0 75 6 126 31 39 19 74 29 91 27 23
-4 26 -1 22 16 -8 31 -63 79 -106 95 -39 13 -48 12 -111 -22 -66 -35 -98 -47
-130 -47 -19 0 -35 3 -35 6 0 9 28 34 38 34 5 0 27 17 49 38 21 20 54 49 73
63 19 15 46 36 60 48 22 20 47 33 115 61 11 5 35 11 53 14 17 3 46 9 62 12 28
6 46 1 122 -30 15 -6 33 -24 39 -41 39 -97 149 -80 149 24 0 69 -37 106 -141
140 -44 14 -136 15 -144 1 -3 -5 -13 -10 -22 -10 -23 0 -113 -42 -113 -52 0
-4 -7 -8 -15 -8 -18 0 -19 4 -1 43 32 77 36 91 36 153 0 64 -18 144 -32 144
-5 0 -8 7 -8 16 0 21 -73 90 -113 107 -36 16 -121 38 -140 36 -6 -1 -31 -7
-55 -15z"/>
<path d="M9180 10630 c-8 -5 -25 -10 -38 -10 -52 0 -172 -89 -172 -127 0 -7
-4 -13 -10 -13 -5 0 -10 -13 -10 -29 0 -17 -4 -33 -10 -36 -5 -3 -10 -37 -10
-75 0 -38 5 -72 10 -75 6 -3 10 -19 10 -36 0 -16 5 -29 10 -29 6 0 10 -9 10
-20 0 -11 5 -20 10 -20 6 0 10 -4 10 -10 0 -15 -19 -12 -48 9 -15 10 -45 24
-67 31 -22 7 -50 17 -61 22 -22 10 -105 6 -159 -8 -40 -10 -105 -53 -105 -70
0 -8 -4 -14 -10 -14 -5 0 -10 -22 -10 -48 0 -39 5 -53 25 -70 14 -12 33 -22
43 -22 30 0 72 24 72 42 0 48 116 107 183 94 17 -4 47 -9 65 -13 18 -3 35 -9
38 -14 3 -5 16 -9 30 -9 13 0 24 -4 24 -10 0 -5 9 -10 19 -10 11 0 21 -3 23
-7 2 -5 28 -28 58 -53 30 -24 62 -52 70 -60 8 -9 31 -27 50 -40 40 -28 60 -46
60 -54 0 -10 -79 -6 -85 4 -3 6 -14 10 -24 10 -9 0 -26 8 -37 18 -36 33 -89
45 -131 30 -43 -15 -97 -64 -105 -95 -5 -19 -2 -20 32 -16 22 3 40 1 44 -6 4
-6 16 -11 27 -11 10 0 19 -4 19 -10 0 -5 9 -10 20 -10 11 0 20 -4 20 -10 0 -6
30 -10 70 -10 40 0 70 4 70 10 0 6 6 10 13 10 7 0 30 16 51 35 43 39 49 41 68
22 7 -7 29 -24 48 -37 66 -46 74 -60 35 -60 -48 0 -115 -50 -115 -85 0 -11 13
-15 52 -15 28 0 67 -5 85 -12 27 -10 38 -10 53 0 26 16 52 15 86 -3 34 -17
104 -93 104 -112 0 -7 5 -13 10 -13 6 0 10 -9 10 -20 0 -11 5 -20 10 -20 6 0
10 -9 10 -19 0 -11 5 -23 10 -26 6 -3 10 -17 10 -31 0 -13 5 -24 10 -24 12 0
13 44 1 68 -5 9 -19 38 -31 65 -13 26 -27 47 -32 47 -4 0 -8 6 -8 14 0 7 -13
27 -30 44 -22 23 -30 42 -30 67 0 19 -4 35 -10 35 -5 0 -10 24 -10 53 0 48
-17 118 -33 133 -4 4 -7 18 -7 31 0 14 -6 23 -16 23 -20 0 -44 -24 -44 -44 0
-9 -4 -16 -10 -16 -17 0 -11 -47 12 -95 12 -25 26 -45 30 -45 4 0 8 -4 8 -10
0 -20 -31 -10 -62 20 -17 17 -35 30 -40 30 -4 0 -22 14 -40 30 -17 17 -35 30
-40 30 -4 0 -22 14 -40 30 -17 17 -35 30 -39 30 -8 0 -84 67 -138 121 -49 49
-101 114 -101 126 0 7 -4 13 -10 13 -5 0 -10 7 -10 15 0 8 -4 23 -9 33 -29 57
-44 192 -21 192 6 0 10 7 10 15 0 34 58 105 85 105 8 0 15 5 15 10 0 6 27 10
60 10 33 0 60 -4 60 -10 0 -5 6 -10 14 -10 35 0 60 -87 33 -120 -24 -29 -66
-45 -87 -32 -24 15 -33 2 -24 -35 13 -56 67 -93 133 -93 22 0 43 5 46 10 3 6
13 10 21 10 22 0 77 61 92 101 14 41 16 92 3 117 -5 9 -15 31 -22 47 -19 40
-46 67 -94 92 -78 40 -136 52 -165 33z"/>
<path d="M4590 10595 c-17 -46 9 -72 55 -55 14 5 33 6 42 3 24 -9 115 -103
132 -136 8 -15 18 -27 23 -27 4 0 8 -8 8 -17 0 -14 2 -15 13 -4 10 11 10 14 0
18 -7 3 -13 13 -13 24 0 10 -4 19 -9 19 -5 0 -14 14 -21 30 -7 17 -16 30 -21
30 -5 0 -9 6 -9 14 0 7 -24 39 -54 70 -49 50 -59 56 -95 56 -35 0 -43 -4 -51
-25z"/>
<path d="M8775 10577 c-22 -23 -46 -55 -54 -70 -8 -15 -18 -27 -23 -27 -4 0
-8 -9 -8 -20 0 -11 -3 -20 -7 -20 -10 0 -34 -52 -28 -58 6 -6 45 37 45 49 0 4
22 30 49 58 49 51 75 61 117 48 14 -5 28 -1 43 12 19 16 20 22 10 45 -11 23
-18 26 -58 25 -41 0 -51 -5 -86 -42z"/>
<path d="M6525 10259 c-236 -9 -412 -31 -655 -79 -30 -6 -74 -14 -97 -17 -24
-3 -43 -9 -43 -14 0 -5 -18 -9 -40 -9 -22 0 -40 -4 -40 -10 0 -5 -15 -10 -34
-10 -19 0 -38 -4 -41 -10 -3 -5 -15 -10 -27 -10 -21 0 -140 -36 -170 -51 -10
-5 -27 -9 -37 -9 -11 0 -22 -4 -25 -8 -3 -4 -28 -14 -56 -22 -28 -8 -53 -18
-56 -22 -3 -4 -16 -8 -30 -8 -13 0 -24 -4 -24 -8 0 -5 -22 -15 -50 -22 -27 -7
-50 -17 -50 -22 0 -4 -7 -8 -15 -8 -8 0 -23 -4 -33 -9 -74 -37 -106 -51 -118
-51 -8 0 -14 -4 -14 -10 0 -5 -9 -10 -20 -10 -11 0 -20 -4 -20 -10 0 -5 -9
-10 -20 -10 -11 0 -20 -4 -20 -10 0 -5 -9 -10 -20 -10 -11 0 -20 -4 -20 -10 0
-5 -9 -10 -20 -10 -11 0 -20 -4 -20 -10 0 -5 -9 -10 -20 -10 -11 0 -20 -3 -20
-7 0 -5 -10 -13 -23 -18 -31 -15 -111 -59 -117 -65 -10 -10 -65 -41 -82 -47
-10 -3 -18 -9 -18 -14 0 -5 -6 -9 -13 -9 -7 0 -22 -8 -33 -17 -10 -10 -31 -24
-46 -32 -16 -8 -28 -18 -28 -23 0 -4 -6 -8 -12 -8 -7 0 -26 -11 -42 -25 -16
-14 -33 -25 -37 -25 -4 0 -14 -6 -21 -13 -7 -7 -29 -24 -48 -37 -19 -13 -37
-27 -40 -30 -3 -3 -21 -17 -40 -30 -19 -13 -42 -31 -50 -40 -8 -9 -31 -27 -50
-40 -19 -13 -46 -36 -60 -50 -14 -14 -43 -38 -64 -54 -51 -39 -373 -361 -412
-412 -16 -21 -40 -50 -54 -64 -14 -14 -37 -41 -50 -60 -13 -19 -31 -42 -40
-50 -9 -8 -27 -31 -40 -50 -13 -19 -27 -37 -30 -40 -3 -3 -17 -21 -30 -40 -13
-19 -30 -41 -37 -48 -7 -7 -13 -17 -13 -21 0 -4 -11 -21 -25 -37 -14 -16 -25
-33 -25 -37 0 -4 -9 -17 -20 -29 -11 -12 -20 -28 -20 -35 0 -7 -4 -13 -9 -13
-5 0 -14 -13 -21 -30 -7 -16 -16 -30 -20 -30 -4 0 -10 -8 -13 -17 -6 -18 -37
-73 -47 -83 -6 -6 -50 -86 -65 -117 -5 -13 -13 -23 -17 -23 -5 0 -8 -9 -8 -20
0 -11 -4 -20 -10 -20 -5 0 -10 -9 -10 -20 0 -11 -4 -20 -10 -20 -5 0 -10 -9
-10 -20 0 -11 -4 -20 -10 -20 -5 0 -10 -9 -10 -20 0 -11 -4 -20 -10 -20 -5 0
-10 -9 -10 -20 0 -11 -4 -20 -10 -20 -5 0 -10 -6 -10 -13 0 -12 -29 -80 -50
-119 -6 -10 -10 -25 -10 -33 0 -8 -4 -15 -8 -15 -5 0 -15 -22 -22 -50 -7 -27
-17 -50 -22 -50 -4 0 -8 -11 -8 -24 0 -14 -4 -27 -8 -30 -4 -3 -14 -28 -22
-56 -8 -28 -18 -53 -22 -56 -4 -3 -8 -14 -8 -25 0 -10 -4 -27 -9 -37 -15 -30
-51 -149 -51 -170 0 -12 -4 -24 -10 -27 -5 -3 -10 -22 -10 -41 0 -19 -4 -34
-10 -34 -5 0 -10 -18 -10 -39 0 -22 -4 -42 -9 -45 -5 -3 -11 -23 -14 -43 -3
-21 -11 -63 -17 -93 -69 -351 -92 -668 -78 -1082 9 -268 27 -419 78 -678 6
-30 13 -73 17 -95 3 -22 9 -44 14 -49 5 -6 9 -25 9 -42 0 -18 5 -36 10 -39 6
-3 10 -19 10 -35 0 -16 5 -32 10 -35 6 -3 10 -16 10 -27 0 -23 17 -81 31 -110
5 -10 9 -27 9 -37 0 -11 5 -23 10 -26 6 -3 10 -17 10 -30 0 -13 5 -27 10 -30
6 -3 10 -17 10 -30 0 -13 4 -26 8 -29 4 -3 14 -28 22 -55 7 -28 17 -51 22 -51
4 0 8 -11 8 -24 0 -14 5 -28 10 -31 6 -3 10 -15 10 -26 0 -10 5 -19 10 -19 6
0 10 -7 10 -15 0 -15 4 -25 28 -72 7 -13 12 -30 12 -38 0 -8 5 -15 10 -15 6 0
10 -9 10 -20 0 -11 5 -20 10 -20 6 0 10 -9 10 -20 0 -11 5 -20 10 -20 6 0 10
-9 10 -20 0 -11 5 -20 10 -20 6 0 10 -9 10 -20 0 -11 5 -20 10 -20 6 0 10 -9
10 -20 0 -11 5 -20 10 -20 6 0 10 -9 10 -20 0 -11 5 -20 10 -20 6 0 10 -9 10
-19 0 -11 3 -21 8 -23 9 -4 41 -57 49 -80 3 -10 9 -18 14 -18 5 0 9 -7 9 -15
0 -9 9 -25 20 -37 11 -12 20 -28 20 -35 0 -7 5 -13 10 -13 6 0 10 -6 10 -13 0
-7 9 -23 20 -35 11 -12 20 -24 20 -27 0 -10 63 -100 72 -103 4 -2 8 -9 8 -15
0 -7 14 -28 30 -47 16 -19 30 -38 30 -43 0 -4 14 -21 30 -39 17 -17 30 -35 30
-41 0 -5 8 -17 18 -26 10 -9 29 -32 42 -51 13 -19 36 -46 50 -60 14 -14 38
-43 54 -64 39 -52 400 -413 452 -452 21 -16 50 -40 64 -54 14 -14 41 -37 60
-50 19 -14 45 -35 58 -47 13 -13 27 -23 31 -23 5 0 23 -13 41 -30 18 -16 35
-30 40 -30 4 0 20 -11 36 -25 16 -14 34 -25 39 -25 6 0 17 -9 25 -20 8 -11 19
-20 25 -20 6 0 20 -8 31 -17 25 -23 74 -53 97 -60 9 -3 17 -9 17 -13 0 -4 14
-13 30 -20 17 -7 30 -16 30 -21 0 -5 9 -9 20 -9 11 0 20 -4 20 -8 0 -4 22 -19
50 -33 27 -13 50 -27 50 -31 0 -5 9 -8 20 -8 11 0 20 -4 20 -10 0 -5 9 -10 19
-10 11 0 21 -3 23 -7 4 -11 128 -73 144 -73 8 0 14 -4 14 -10 0 -5 9 -10 20
-10 11 0 20 -4 20 -10 0 -5 9 -10 20 -10 11 0 20 -4 20 -10 0 -5 7 -10 15 -10
8 0 37 -9 63 -21 26 -12 57 -25 70 -30 58 -23 78 -32 94 -40 10 -5 27 -9 38
-9 11 0 20 -4 20 -10 0 -5 14 -10 30 -10 17 0 30 -4 30 -10 0 -5 14 -10 30
-10 17 0 30 -4 30 -10 0 -5 14 -10 30 -10 17 0 30 -4 30 -10 0 -5 13 -10 29
-10 17 0 33 -4 36 -10 3 -5 19 -10 35 -10 16 0 31 -4 34 -9 3 -5 20 -11 38
-14 18 -3 53 -11 78 -17 25 -6 59 -14 75 -16 17 -3 39 -9 50 -14 11 -5 38 -11
60 -15 22 -3 66 -10 98 -15 238 -40 311 -48 570 -61 335 -16 709 6 1007 60
138 25 181 35 365 82 22 6 55 13 73 16 17 3 32 9 32 14 0 5 13 9 29 9 17 0 33
4 36 10 3 5 17 10 30 10 13 0 27 5 30 10 3 6 17 10 30 10 13 0 27 5 30 10 3 6
17 10 31 10 13 0 24 5 24 10 0 6 11 10 24 10 14 0 27 4 30 8 3 4 28 14 55 22
28 7 51 17 51 22 0 4 7 8 15 8 15 0 25 4 72 28 13 7 30 12 38 12 8 0 15 5 15
10 0 6 9 10 20 10 11 0 20 5 20 10 0 6 6 10 13 10 15 0 221 102 225 112 2 5
12 8 23 8 10 0 19 5 19 10 0 6 9 10 20 10 11 0 20 4 20 9 0 5 8 11 18 14 17 6
72 37 82 47 3 3 15 11 28 18 55 31 67 38 86 55 11 9 26 17 33 17 7 0 13 4 13
8 0 5 12 15 28 23 15 8 36 22 46 32 11 9 25 17 31 17 6 0 17 9 25 20 8 11 19
20 25 20 6 0 20 8 31 18 10 10 35 29 54 42 19 14 45 35 58 47 13 13 27 23 32
23 5 0 24 15 42 33 18 17 51 45 73 62 52 38 452 438 490 490 17 22 45 55 63
73 17 18 32 37 32 42 0 5 10 19 23 32 12 13 33 39 47 58 13 19 32 44 42 54 10
11 18 25 18 31 0 6 9 17 20 25 11 8 20 19 20 25 0 5 11 23 25 39 13 16 27 37
30 47 4 11 11 19 16 19 5 0 9 6 9 13 0 7 8 22 18 33 16 19 23 31 55 86 6 13
14 25 17 28 10 10 41 65 47 83 3 9 9 17 14 17 5 0 9 9 9 19 0 11 4 21 8 23 10
4 152 289 152 306 0 6 5 12 10 12 6 0 10 7 10 15 0 8 5 24 10 35 6 11 15 29
20 40 6 11 10 27 10 35 0 8 4 15 8 15 5 0 15 23 22 50 7 28 17 50 22 50 4 0 8
14 8 30 0 17 5 30 10 30 6 0 10 11 10 24 0 14 5 28 10 31 6 3 10 17 10 30 0
13 5 27 10 30 6 3 10 17 10 30 0 13 5 27 10 30 6 3 10 19 10 36 0 16 4 29 9
29 5 0 11 15 14 33 9 54 18 91 27 112 5 11 11 34 14 50 2 17 10 50 16 75 17
70 43 206 61 320 60 391 59 965 -1 1338 -30 185 -42 251 -59 317 -25 98 -33
132 -38 163 -3 18 -9 35 -14 38 -5 3 -9 21 -9 40 0 19 -4 34 -10 34 -5 0 -10
14 -10 30 0 17 -4 30 -10 30 -5 0 -10 13 -10 29 0 17 -4 33 -10 36 -5 3 -10
17 -10 30 0 13 -4 27 -10 30 -5 3 -10 17 -10 31 0 13 -4 24 -10 24 -5 0 -10 9
-10 20 0 11 -4 29 -10 40 -5 11 -14 29 -20 40 -5 11 -10 29 -10 40 0 11 -4 20
-10 20 -5 0 -10 7 -10 15 0 8 -4 24 -10 35 -5 11 -14 29 -20 40 -5 11 -10 27
-10 35 0 8 -4 15 -10 15 -5 0 -10 9 -10 20 0 11 -4 20 -10 20 -5 0 -10 6 -10
13 0 15 -82 181 -92 185 -5 2 -8 12 -8 23 0 10 -4 19 -10 19 -5 0 -10 9 -10
20 0 11 -3 20 -7 20 -5 0 -19 23 -32 50 -14 28 -29 50 -33 50 -4 0 -8 9 -8 20
0 11 -4 20 -10 20 -5 0 -10 6 -10 13 0 7 -9 23 -20 35 -11 12 -20 28 -20 37 0
8 -4 15 -8 15 -5 0 -15 12 -23 28 -8 15 -22 36 -31 46 -10 11 -18 26 -18 33 0
7 -3 13 -8 13 -4 0 -18 18 -32 40 -14 22 -28 40 -32 40 -4 0 -10 9 -13 20 -4
11 -17 32 -31 45 -13 13 -24 28 -24 33 0 5 -12 22 -28 38 -15 16 -38 45 -52
64 -13 19 -36 46 -50 60 -14 14 -38 43 -54 64 -39 52 -400 413 -452 452 -21
16 -50 40 -64 54 -14 14 -41 37 -60 50 -19 14 -45 35 -58 47 -13 13 -27 23
-32 23 -5 0 -20 11 -34 25 -14 14 -29 25 -33 25 -4 0 -24 14 -43 30 -19 16
-40 30 -45 30 -6 0 -17 9 -25 20 -8 11 -19 20 -25 20 -6 0 -20 8 -31 18 -25
22 -74 52 -96 59 -10 3 -18 9 -18 13 0 4 -13 13 -30 20 -16 7 -30 16 -30 21 0
5 -9 9 -19 9 -11 0 -21 3 -23 8 -4 9 -57 41 -80 49 -10 3 -18 9 -18 14 0 5 -9
9 -20 9 -11 0 -20 5 -20 10 0 6 -9 10 -20 10 -11 0 -20 5 -20 10 0 6 -9 10
-20 10 -11 0 -20 5 -20 10 0 6 -9 10 -20 10 -11 0 -20 5 -20 10 0 6 -9 10 -20
10 -11 0 -20 5 -20 10 0 6 -9 10 -20 10 -11 0 -20 5 -20 10 0 6 -9 10 -20 10
-11 0 -20 5 -20 10 0 6 -6 10 -13 10 -7 0 -32 9 -55 20 -22 11 -48 20 -57 20
-8 0 -15 5 -15 10 0 6 -9 10 -19 10 -11 0 -23 5 -26 10 -3 6 -17 10 -31 10
-13 0 -24 4 -24 8 0 5 -23 15 -51 22 -27 8 -52 18 -55 22 -3 4 -16 8 -30 8
-13 0 -24 5 -24 10 0 6 -13 10 -30 10 -16 0 -30 5 -30 10 0 6 -11 10 -25 10
-14 0 -33 4 -43 9 -29 15 -87 31 -110 31 -12 0 -22 5 -22 10 0 6 -15 10 -34
10 -19 0 -38 5 -41 10 -3 6 -21 10 -40 10 -19 0 -37 5 -40 10 -3 6 -24 10 -45
10 -21 0 -42 5 -45 10 -3 6 -26 10 -50 10 -24 0 -46 4 -49 9 -3 5 -29 11 -58
15 -29 3 -84 11 -123 16 -38 6 -108 15 -155 19 -47 5 -101 12 -120 15 -57 9
-423 12 -605 5z m540 -39 c72 -5 168 -14 215 -20 47 -6 110 -13 140 -16 30 -3
64 -9 75 -14 11 -5 38 -11 60 -14 50 -6 126 -21 185 -36 25 -6 62 -14 83 -17
20 -3 40 -9 43 -14 3 -5 18 -9 34 -9 16 0 32 -4 35 -10 3 -5 19 -10 35 -10 16
0 32 -4 35 -10 3 -5 19 -10 36 -10 16 0 29 -4 29 -10 0 -5 14 -10 30 -10 17 0
30 -4 30 -10 0 -5 14 -10 30 -10 17 0 30 -4 30 -10 0 -5 14 -10 30 -10 17 0
30 -4 30 -8 0 -5 23 -15 50 -22 28 -7 50 -16 50 -20 0 -4 23 -13 50 -20 28 -7
50 -17 50 -22 0 -4 7 -8 15 -8 8 0 23 -4 33 -10 39 -21 107 -50 119 -50 7 0
13 -4 13 -10 0 -5 9 -10 20 -10 11 0 20 -4 20 -10 0 -5 9 -10 20 -10 11 0 20
-4 20 -10 0 -5 9 -10 19 -10 11 0 21 -3 23 -7 3 -7 96 -59 155 -87 13 -6 23
-14 23 -18 0 -5 7 -8 15 -8 9 0 25 -9 37 -20 12 -11 28 -20 35 -20 7 0 13 -4
13 -10 0 -5 6 -10 13 -10 7 0 23 -9 35 -20 12 -11 28 -20 37 -20 8 0 15 -4 15
-8 0 -5 12 -15 28 -23 15 -8 36 -22 46 -31 11 -10 25 -18 31 -18 6 0 17 -9 25
-20 8 -11 19 -20 25 -20 6 0 20 -8 31 -18 10 -10 35 -28 54 -42 19 -13 37 -27
40 -30 3 -3 21 -17 40 -30 19 -13 46 -36 60 -50 14 -14 40 -36 58 -49 84 -59
464 -439 522 -522 14 -19 36 -45 50 -59 14 -14 37 -41 50 -60 13 -19 27 -37
30 -40 3 -3 17 -21 30 -40 14 -19 32 -44 42 -54 10 -11 18 -24 18 -29 0 -5 8
-17 18 -26 9 -9 23 -28 31 -43 8 -16 18 -28 23 -28 4 0 8 -6 8 -13 0 -7 8 -22
18 -33 9 -10 23 -31 31 -46 8 -16 18 -28 23 -28 4 0 8 -9 8 -20 0 -11 4 -20 9
-20 5 0 14 -13 21 -30 7 -16 16 -30 21 -30 5 0 9 -9 9 -20 0 -11 3 -20 8 -20
4 0 12 -10 18 -23 30 -60 60 -112 67 -115 4 -2 7 -12 7 -23 0 -10 5 -19 10
-19 6 0 10 -9 10 -20 0 -11 5 -20 10 -20 6 0 10 -9 10 -20 0 -11 5 -20 10 -20
6 0 10 -9 10 -20 0 -11 5 -20 10 -20 6 0 10 -9 10 -20 0 -11 5 -20 10 -20 6 0
10 -7 10 -15 0 -8 5 -24 10 -35 6 -11 15 -29 20 -40 6 -11 10 -27 10 -35 0 -8
5 -15 10 -15 6 0 10 -7 10 -15 0 -8 4 -23 9 -33 5 -9 14 -30 21 -47 7 -16 16
-38 21 -47 5 -10 9 -27 9 -38 0 -11 5 -20 10 -20 6 0 10 -11 10 -24 0 -14 5
-28 10 -31 6 -3 10 -17 10 -30 0 -13 5 -27 10 -30 6 -3 10 -17 10 -30 0 -13 5
-27 10 -30 6 -3 10 -19 10 -36 0 -16 4 -29 9 -29 5 0 12 -17 15 -37 16 -92 19
-103 27 -103 5 0 9 -18 9 -40 0 -22 5 -40 10 -40 6 0 10 -18 10 -39 0 -22 5
-43 10 -46 6 -3 10 -24 10 -45 0 -21 5 -42 10 -45 6 -3 10 -28 10 -54 0 -26 4
-51 9 -56 5 -6 12 -35 15 -65 3 -30 10 -93 16 -140 45 -367 45 -757 0 -1105
-6 -44 -13 -108 -16 -142 -3 -35 -10 -63 -15 -63 -5 0 -9 -22 -9 -49 0 -28 -4
-53 -10 -56 -5 -3 -10 -24 -10 -45 0 -21 -4 -42 -10 -45 -5 -3 -10 -24 -10
-45 0 -21 -4 -42 -10 -45 -5 -3 -10 -22 -10 -41 0 -19 -4 -34 -10 -34 -5 0
-10 -15 -10 -34 0 -19 -5 -38 -10 -41 -5 -3 -10 -19 -10 -36 0 -16 -4 -29 -10
-29 -5 0 -10 -13 -10 -29 0 -17 -4 -33 -10 -36 -5 -3 -10 -17 -10 -30 0 -13
-4 -27 -10 -30 -6 -3 -10 -17 -10 -30 0 -13 -4 -27 -10 -30 -5 -3 -10 -17 -10
-31 0 -13 -4 -24 -10 -24 -5 0 -10 -9 -10 -20 0 -11 -4 -29 -10 -40 -5 -11
-14 -29 -20 -40 -5 -11 -10 -29 -10 -40 0 -11 -4 -20 -10 -20 -5 0 -10 -7 -10
-15 0 -8 -4 -23 -10 -33 -21 -39 -50 -107 -50 -119 0 -7 -4 -13 -10 -13 -5 0
-10 -9 -10 -20 0 -11 -4 -20 -10 -20 -5 0 -10 -9 -10 -20 0 -11 -4 -20 -10
-20 -5 0 -10 -9 -10 -20 0 -11 -4 -20 -10 -20 -5 0 -10 -9 -10 -20 0 -11 -4
-20 -10 -20 -5 0 -10 -9 -10 -20 0 -11 -4 -20 -10 -20 -5 0 -10 -9 -10 -20 0
-11 -3 -20 -7 -20 -5 0 -19 -23 -32 -50 -14 -28 -29 -50 -33 -50 -4 0 -8 -9
-8 -20 0 -11 -4 -20 -10 -20 -5 0 -10 -6 -10 -13 0 -7 -9 -23 -20 -35 -11 -12
-20 -26 -20 -32 0 -6 -9 -20 -20 -32 -11 -12 -20 -28 -20 -35 0 -7 -4 -13 -9
-13 -5 0 -12 -8 -16 -19 -3 -10 -17 -31 -30 -47 -14 -16 -25 -35 -25 -41 0 -7
-4 -13 -8 -13 -5 0 -15 -12 -23 -27 -8 -15 -26 -41 -41 -57 -16 -16 -28 -33
-28 -39 0 -5 -8 -17 -18 -26 -10 -9 -29 -32 -42 -51 -13 -19 -31 -42 -40 -50
-9 -8 -26 -30 -39 -48 -66 -94 -469 -497 -563 -563 -18 -13 -40 -30 -48 -39
-8 -9 -31 -27 -50 -40 -19 -13 -42 -32 -51 -42 -9 -10 -20 -18 -25 -18 -5 0
-22 -12 -39 -26 -16 -14 -42 -33 -57 -42 -16 -9 -28 -20 -28 -24 0 -4 -6 -8
-12 -8 -7 0 -26 -11 -42 -25 -16 -13 -37 -27 -47 -30 -11 -4 -19 -11 -19 -16
0 -5 -6 -9 -13 -9 -7 0 -23 -9 -35 -20 -12 -11 -26 -20 -32 -20 -6 0 -20 -9
-32 -20 -12 -11 -28 -20 -35 -20 -7 0 -13 -4 -13 -10 0 -5 -9 -10 -20 -10 -11
0 -20 -4 -20 -9 0 -5 -8 -11 -17 -14 -24 -8 -77 -40 -81 -49 -2 -5 -12 -8 -23
-8 -10 0 -19 -4 -19 -10 0 -5 -9 -10 -20 -10 -11 0 -20 -4 -20 -10 0 -5 -9
-10 -20 -10 -11 0 -20 -4 -20 -10 0 -5 -9 -10 -20 -10 -11 0 -20 -4 -20 -10 0
-5 -9 -10 -20 -10 -11 0 -20 -4 -20 -10 0 -5 -9 -10 -20 -10 -11 0 -20 -4 -20
-10 0 -5 -7 -10 -15 -10 -8 0 -23 -4 -33 -10 -39 -21 -107 -50 -119 -50 -7 0
-13 -4 -13 -10 0 -5 -9 -10 -20 -10 -11 0 -29 -5 -40 -10 -11 -5 -29 -14 -40
-20 -11 -5 -29 -10 -40 -10 -11 0 -20 -4 -20 -10 0 -5 -11 -10 -24 -10 -14 0
-28 -4 -31 -10 -3 -5 -17 -10 -30 -10 -13 0 -27 -4 -30 -10 -3 -5 -17 -10 -30
-10 -13 0 -27 -4 -30 -10 -3 -5 -19 -10 -36 -10 -16 0 -29 -4 -29 -10 0 -5
-13 -10 -29 -10 -17 0 -33 -4 -36 -10 -3 -5 -22 -10 -41 -10 -19 0 -34 -4 -34
-10 0 -5 -15 -10 -34 -10 -19 0 -38 -4 -41 -10 -3 -5 -24 -10 -45 -10 -21 0
-42 -4 -45 -10 -3 -5 -24 -10 -45 -10 -21 0 -42 -4 -45 -10 -3 -5 -28 -10 -56
-10 -27 0 -49 -4 -49 -9 0 -5 -28 -12 -62 -15 -35 -3 -101 -10 -148 -16 -358
-44 -739 -44 -1100 0 -47 6 -110 13 -140 16 -30 3 -59 10 -65 15 -5 5 -30 9
-56 9 -26 0 -51 5 -54 10 -3 6 -24 10 -45 10 -21 0 -42 5 -45 10 -3 6 -24 10
-46 10 -21 0 -39 5 -39 10 0 6 -18 10 -40 10 -22 0 -40 4 -40 9 0 5 -16 12
-35 15 -19 3 -51 9 -70 12 -19 3 -35 10 -35 15 0 5 -13 9 -29 9 -17 0 -33 5
-36 10 -3 6 -17 10 -30 10 -13 0 -27 5 -30 10 -3 6 -17 10 -31 10 -13 0 -24 5
-24 10 0 6 -13 10 -30 10 -16 0 -30 5 -30 10 0 6 -11 10 -24 10 -14 0 -28 5
-31 10 -3 6 -15 10 -26 10 -10 0 -19 5 -19 10 0 6 -11 10 -24 10 -14 0 -28 4
-31 10 -3 5 -15 10 -26 10 -10 0 -19 5 -19 10 0 6 -7 10 -15 10 -8 0 -24 4
-35 10 -11 5 -29 14 -40 20 -11 5 -27 10 -35 10 -8 0 -15 5 -15 10 0 6 -9 10
-20 10 -11 0 -20 5 -20 10 0 6 -9 10 -20 10 -11 0 -20 5 -20 10 0 6 -9 10 -20
10 -11 0 -20 5 -20 10 0 6 -9 10 -20 10 -11 0 -20 5 -20 10 0 6 -9 10 -19 10
-11 0 -21 3 -23 8 -3 6 -55 36 -115 66 -13 6 -23 14 -23 19 0 4 -7 7 -15 7 -9
0 -25 9 -37 20 -12 11 -28 20 -35 20 -7 0 -13 4 -13 9 0 5 -8 11 -17 14 -23 7
-72 37 -97 59 -11 10 -26 18 -33 18 -7 0 -13 4 -13 8 0 5 -12 15 -27 23 -16 8
-35 22 -44 31 -9 10 -21 18 -26 18 -5 0 -18 8 -29 18 -10 10 -35 28 -54 42
-19 13 -37 27 -40 30 -3 3 -21 17 -40 30 -19 13 -46 36 -60 50 -14 14 -40 36
-58 49 -42 29 -189 168 -306 290 -50 52 -114 117 -141 145 -28 28 -61 67 -75
86 -14 19 -39 50 -57 68 -18 18 -33 36 -33 41 0 5 -16 26 -35 47 -19 21 -35
42 -35 46 0 5 -13 22 -30 40 -16 17 -30 36 -30 42 0 6 -9 18 -20 26 -11 8 -20
21 -20 29 0 7 -8 21 -18 30 -9 9 -23 28 -31 43 -8 16 -18 28 -23 28 -4 0 -8 9
-8 20 0 11 -4 20 -8 20 -5 0 -15 12 -23 28 -8 15 -16 29 -19 32 -10 10 -41 65
-47 83 -3 9 -9 17 -14 17 -5 0 -9 9 -9 20 0 11 -3 20 -7 20 -5 0 -13 10 -19
23 -30 60 -60 112 -66 115 -5 2 -8 12 -8 23 0 10 -4 19 -10 19 -5 0 -10 9 -10
20 0 11 -4 20 -10 20 -5 0 -10 9 -10 20 0 11 -4 20 -10 20 -5 0 -10 6 -10 13
0 7 -9 32 -20 55 -11 22 -20 48 -20 57 0 8 -4 15 -10 15 -5 0 -10 9 -10 20 0
11 -4 20 -8 20 -5 0 -15 22 -22 50 -7 28 -17 50 -22 50 -4 0 -8 9 -8 20 0 11
-4 29 -10 40 -5 11 -14 29 -20 40 -5 11 -10 29 -10 40 0 11 -4 20 -10 20 -5 0
-10 14 -10 30 0 17 -4 30 -10 30 -5 0 -10 11 -10 25 0 14 -4 33 -9 43 -5 9
-14 37 -21 62 -7 25 -16 53 -21 62 -5 10 -9 29 -9 42 0 14 -4 27 -9 30 -5 3
-11 23 -14 43 -11 72 -18 108 -27 128 -8 19 -15 53 -26 140 -3 22 -9 49 -14
60 -5 11 -11 45 -14 75 -3 30 -10 93 -16 140 -16 131 -34 413 -34 530 0 116
18 397 34 530 6 47 13 113 16 148 3 34 9 62 14 62 4 0 11 24 13 53 9 80 17
130 27 152 5 11 11 34 14 50 2 17 10 50 16 75 6 25 14 60 17 78 3 17 9 32 14
32 5 0 9 10 9 22 0 23 16 81 31 110 5 10 9 27 9 37 0 11 5 23 10 26 5 3 10 17
10 30 0 13 5 27 10 30 6 3 10 15 10 26 0 10 5 29 12 42 24 48 28 57 28 77 0
11 5 20 10 20 6 0 10 7 10 15 0 15 4 25 28 72 7 13 12 30 12 38 0 8 5 15 10
15 6 0 10 7 10 15 0 8 4 23 9 33 5 9 34 69 65 132 68 140 109 214 119 218 4 2
7 12 7 23 0 10 5 19 10 19 6 0 10 6 10 13 0 7 9 23 20 35 11 12 20 28 20 37 0
8 4 15 9 15 5 0 14 14 21 30 7 17 16 30 21 30 5 0 9 6 9 13 0 7 8 22 18 33 9
10 23 31 31 47 8 15 18 27 23 27 4 0 8 6 8 13 0 6 14 28 30 47 16 19 30 39 30
43 0 4 11 19 25 33 14 14 25 29 25 34 0 5 10 19 23 32 12 13 34 39 47 58 14
19 39 50 57 68 18 18 33 37 33 43 0 14 485 499 499 499 6 0 25 15 43 33 18 18
49 43 68 57 19 13 45 35 58 47 13 13 27 23 32 23 5 0 20 11 34 25 14 14 29 25
33 25 4 0 24 14 43 30 19 16 41 30 48 30 6 0 12 4 12 8 0 5 12 15 28 23 15 8
36 22 46 32 11 9 26 17 33 17 7 0 13 4 13 9 0 5 9 13 20 16 11 3 26 12 33 18
18 17 69 47 90 54 9 3 17 9 17 14 0 5 9 9 19 9 11 0 21 3 23 8 4 9 78 50 218
118 63 31 123 60 132 65 10 5 25 9 33 9 8 0 15 5 15 10 0 6 7 10 15 10 8 0 24
5 35 10 11 6 29 15 40 20 11 6 27 10 35 10 8 0 15 5 15 10 0 6 9 10 20 10 11
0 29 5 40 10 11 6 29 15 40 20 11 6 29 10 39 10 11 0 23 5 26 10 3 6 17 10 30
10 13 0 27 5 30 10 3 6 15 10 26 10 10 0 27 4 37 9 29 15 87 31 110 31 12 0
22 4 22 9 0 5 15 11 33 14 17 3 52 11 77 17 25 6 59 14 75 16 17 3 39 9 50 14
22 10 72 18 153 27 28 2 52 9 52 13 0 5 28 11 63 14 34 3 100 10 147 16 47 6
156 14 243 19 87 5 162 12 165 16 7 7 210 0 437 -15z"/>
<path d="M6447 10054 c-4 -4 -55 -11 -114 -16 -60 -4 -142 -13 -183 -18 -41
-6 -97 -13 -125 -16 -27 -3 -54 -10 -59 -15 -6 -5 -29 -9 -52 -9 -24 0 -46 -4
-49 -10 -3 -5 -18 -10 -32 -10 -15 0 -40 -4 -57 -9 -17 -5 -49 -14 -71 -19
-91 -23 -131 -34 -147 -43 -10 -5 -29 -9 -43 -9 -14 0 -25 -4 -25 -10 0 -5
-13 -10 -29 -10 -17 0 -33 -4 -36 -10 -3 -5 -17 -10 -30 -10 -13 0 -27 -4 -30
-10 -3 -5 -17 -10 -31 -10 -13 0 -24 -4 -24 -10 0 -5 -9 -10 -20 -10 -11 0
-28 -4 -38 -9 -9 -5 -30 -14 -47 -21 -16 -7 -38 -16 -47 -21 -10 -5 -25 -9
-33 -9 -8 0 -15 -4 -15 -10 0 -5 -7 -10 -15 -10 -8 0 -24 -4 -35 -10 -11 -5
-29 -14 -40 -20 -11 -5 -27 -10 -35 -10 -8 0 -15 -4 -15 -10 0 -5 -9 -10 -20
-10 -11 0 -20 -4 -20 -10 0 -5 -9 -10 -20 -10 -11 0 -20 -4 -20 -10 0 -5 -9
-10 -20 -10 -11 0 -20 -4 -20 -10 0 -5 -9 -10 -20 -10 -11 0 -20 -4 -20 -10 0
-5 -9 -10 -19 -10 -11 0 -21 -3 -23 -7 -4 -10 -57 -42 -80 -50 -10 -3 -18 -9
-18 -14 0 -5 -9 -9 -20 -9 -11 0 -20 -4 -20 -9 0 -5 -8 -11 -17 -14 -21 -7
-72 -37 -90 -54 -7 -6 -22 -15 -33 -18 -11 -3 -20 -11 -20 -16 0 -5 -6 -9 -13
-9 -7 0 -23 -9 -35 -20 -12 -11 -25 -20 -29 -20 -4 0 -24 -14 -43 -30 -19 -16
-39 -30 -43 -30 -4 0 -19 -11 -33 -25 -14 -14 -29 -25 -34 -25 -5 0 -19 -10
-32 -23 -13 -12 -39 -33 -58 -47 -19 -13 -42 -31 -50 -40 -8 -8 -34 -30 -57
-48 -117 -90 -453 -427 -514 -514 -13 -18 -30 -40 -39 -48 -9 -8 -27 -31 -40
-50 -14 -19 -35 -45 -47 -58 -13 -13 -23 -27 -23 -32 0 -5 -11 -20 -25 -34
-14 -14 -25 -29 -25 -33 0 -4 -14 -24 -30 -43 -16 -19 -30 -39 -30 -43 0 -4
-9 -17 -20 -29 -11 -12 -20 -28 -20 -35 0 -7 -4 -13 -9 -13 -5 0 -13 -9 -16
-20 -3 -11 -12 -26 -18 -33 -17 -18 -47 -69 -54 -89 -3 -10 -9 -18 -14 -18 -5
0 -9 -9 -9 -20 0 -11 -3 -20 -7 -20 -5 0 -13 -10 -19 -23 -30 -60 -60 -112
-66 -115 -5 -2 -8 -12 -8 -23 0 -10 -4 -19 -10 -19 -5 0 -10 -9 -10 -20 0 -11
-4 -20 -10 -20 -5 0 -10 -9 -10 -20 0 -11 -4 -20 -10 -20 -5 0 -10 -9 -10 -20
0 -11 -4 -20 -10 -20 -5 0 -10 -7 -10 -15 0 -8 -5 -24 -10 -35 -5 -11 -14 -29
-20 -40 -5 -11 -10 -27 -10 -35 0 -8 -4 -15 -10 -15 -5 0 -10 -7 -10 -15 0 -8
-4 -23 -9 -33 -5 -9 -14 -30 -21 -47 -7 -16 -16 -38 -21 -47 -5 -10 -9 -27 -9
-38 0 -11 -4 -20 -10 -20 -5 0 -10 -13 -10 -30 0 -16 -4 -30 -10 -30 -5 0 -10
-11 -10 -24 0 -14 -5 -28 -10 -31 -5 -3 -10 -19 -10 -36 0 -16 -4 -29 -10 -29
-5 0 -10 -13 -10 -29 0 -17 -4 -33 -10 -36 -5 -3 -10 -19 -10 -35 0 -16 -4
-31 -9 -34 -5 -3 -11 -20 -14 -38 -3 -18 -11 -53 -17 -78 -6 -25 -14 -58 -16
-75 -3 -16 -9 -39 -14 -50 -5 -11 -11 -38 -14 -60 -3 -22 -10 -67 -16 -100
-40 -222 -53 -401 -53 -725 0 -282 6 -403 33 -600 6 -41 13 -97 16 -125 3 -27
10 -54 15 -59 5 -6 9 -29 9 -52 0 -24 4 -45 9 -48 5 -3 11 -23 14 -43 3 -21
10 -56 16 -78 22 -87 33 -131 38 -162 3 -18 9 -33 14 -33 5 0 9 -13 9 -29 0
-17 5 -33 10 -36 5 -3 10 -17 10 -30 0 -13 4 -27 10 -30 5 -3 10 -17 10 -30 0
-13 4 -27 10 -30 6 -3 10 -17 10 -31 0 -13 5 -24 10 -24 6 0 10 -9 10 -20 0
-11 4 -28 9 -38 8 -16 17 -37 40 -94 15 -39 43 -102 57 -132 8 -16 14 -35 14
-43 0 -7 5 -13 10 -13 6 0 10 -9 10 -20 0 -11 5 -20 10 -20 6 0 10 -9 10 -20
0 -11 5 -20 10 -20 6 0 10 -9 10 -20 0 -11 5 -20 10 -20 6 0 10 -9 10 -20 0
-11 5 -20 10 -20 6 0 10 -9 10 -20 0 -11 3 -20 8 -20 4 0 15 -17 24 -37 17
-38 49 -94 58 -103 10 -10 41 -65 47 -82 3 -10 9 -18 14 -18 5 0 9 -6 9 -13 0
-7 8 -22 18 -33 9 -10 23 -31 31 -46 8 -16 18 -28 23 -28 4 0 8 -6 8 -13 0 -7
9 -23 20 -35 11 -12 20 -25 20 -30 0 -4 8 -17 18 -28 10 -10 28 -35 42 -54 13
-19 32 -42 42 -51 10 -9 18 -21 18 -26 0 -5 20 -31 45 -57 25 -27 45 -51 45
-55 0 -5 24 -32 53 -62 28 -31 73 -80 98 -110 61 -71 149 -159 219 -218 30
-25 71 -62 90 -81 19 -19 55 -51 80 -70 25 -19 52 -42 60 -50 8 -9 31 -27 50
-40 19 -13 37 -27 40 -30 3 -3 21 -17 40 -30 19 -14 44 -32 54 -42 11 -10 26
-18 33 -18 7 0 13 -3 13 -8 0 -4 18 -18 40 -32 22 -14 40 -28 40 -32 0 -5 7
-8 15 -8 9 0 25 -9 37 -20 12 -11 28 -20 35 -20 7 0 13 -4 13 -9 0 -5 14 -14
30 -21 17 -7 30 -16 30 -21 0 -5 9 -9 19 -9 11 0 21 -3 23 -7 4 -10 57 -42 81
-50 9 -3 17 -9 17 -14 0 -5 9 -9 20 -9 11 0 20 -4 20 -10 0 -5 9 -10 20 -10
11 0 20 -4 20 -10 0 -5 9 -10 20 -10 11 0 20 -4 20 -10 0 -5 9 -10 20 -10 11
0 20 -4 20 -10 0 -5 9 -10 20 -10 11 0 20 -4 20 -10 0 -5 9 -10 20 -10 11 0
20 -4 20 -10 0 -5 9 -10 20 -10 11 0 20 -4 20 -10 0 -5 7 -10 15 -10 8 0 24
-5 35 -10 11 -6 29 -15 40 -20 11 -5 27 -10 35 -10 8 0 15 -4 15 -8 0 -5 23
-15 50 -22 28 -7 50 -17 50 -22 0 -4 10 -8 23 -8 13 0 27 -4 32 -8 6 -5 57
-23 115 -41 58 -18 113 -37 122 -42 10 -5 29 -9 42 -9 14 0 28 -4 31 -10 3 -5
22 -10 41 -10 19 0 34 -4 34 -10 0 -5 15 -10 33 -10 18 0 37 -4 42 -9 6 -5 28
-11 50 -14 22 -4 65 -11 95 -17 315 -62 444 -74 840 -74 322 0 411 5 615 34
39 5 94 13 123 16 29 4 55 10 58 15 3 5 25 9 49 9 24 0 47 5 50 10 3 6 24 10
45 10 21 0 42 5 45 10 3 6 21 10 40 10 19 0 37 4 40 10 3 5 19 10 35 10 16 0
32 5 35 10 3 6 15 10 27 10 19 0 125 31 173 51 11 4 52 18 90 31 39 13 72 26
73 30 2 5 14 8 27 8 13 0 27 4 30 10 3 5 15 10 26 10 10 0 19 5 19 10 0 6 7
10 15 10 9 0 35 9 57 20 23 11 48 20 55 20 7 0 13 5 13 10 0 6 6 10 13 10 15
0 221 102 225 112 2 5 12 8 23 8 10 0 19 5 19 10 0 6 9 10 20 10 11 0 20 4 20
9 0 5 8 11 18 14 17 6 72 37 82 47 3 3 15 11 28 18 55 31 67 38 86 54 11 10
26 18 33 18 7 0 13 4 13 8 0 5 12 15 28 23 15 8 36 22 46 32 11 9 23 17 28 17
4 0 22 14 40 30 17 17 35 30 41 30 5 0 17 8 26 18 9 10 32 29 51 42 19 13 42
31 50 40 8 9 31 27 50 40 19 13 51 40 70 60 19 19 57 53 84 75 65 51 207 193
276 275 30 36 66 76 80 90 14 14 37 41 50 60 13 19 31 42 40 50 9 8 27 31 40
50 13 19 32 42 42 51 10 9 18 20 18 25 0 5 12 23 26 39 14 17 33 42 42 57 9
16 20 28 24 28 4 0 8 6 8 13 0 7 9 23 20 35 11 12 20 25 20 30 0 4 8 17 18 28
16 19 29 39 56 89 6 11 13 22 16 25 10 10 41 65 47 83 3 9 9 17 14 17 5 0 9 9
9 20 0 11 5 20 10 20 6 0 10 9 10 19 0 11 3 21 8 23 10 4 112 210 112 226 0 6
5 12 10 12 6 0 10 9 10 20 0 11 4 20 8 20 5 0 15 22 22 50 7 27 17 50 22 50 4
0 8 9 8 19 0 11 5 23 10 26 6 3 10 17 10 31 0 13 4 24 8 24 5 0 15 23 22 51 8
27 18 52 22 55 4 3 8 16 8 29 0 13 5 27 10 30 6 3 10 15 10 26 0 10 4 27 9 37
15 29 31 87 31 110 0 12 5 22 10 22 6 0 10 15 10 34 0 19 5 38 10 41 6 3 10
21 10 40 0 19 5 37 10 40 6 3 10 24 10 45 0 21 4 42 10 45 6 3 10 25 10 49 0
23 4 46 9 52 5 5 12 32 15 59 4 28 11 82 16 120 28 190 33 295 33 615 1 396
-11 525 -73 840 -6 30 -13 73 -17 95 -3 22 -9 44 -14 49 -5 6 -9 25 -9 42 0
18 -4 36 -10 39 -5 3 -10 19 -10 35 0 16 -4 32 -10 35 -5 3 -10 17 -10 31 0
13 -4 32 -9 42 -5 9 -24 64 -42 122 -18 58 -36 109 -41 114 -4 6 -8 20 -8 33
0 13 -4 23 -8 23 -5 0 -15 23 -22 50 -7 28 -17 50 -22 50 -4 0 -8 7 -8 15 0 9
-9 35 -20 57 -11 23 -20 48 -20 55 0 7 -4 13 -10 13 -5 0 -10 9 -10 20 0 11
-4 20 -10 20 -5 0 -10 6 -10 14 0 16 -62 140 -72 144 -5 2 -8 12 -8 23 0 10
-4 19 -10 19 -5 0 -10 9 -10 20 0 11 -3 20 -7 20 -5 0 -19 23 -32 50 -14 28
-29 50 -33 50 -4 0 -8 9 -8 20 0 11 -4 20 -9 20 -5 0 -14 14 -21 30 -7 17 -16
30 -20 30 -4 0 -10 8 -13 18 -7 22 -37 71 -59 96 -10 11 -18 25 -18 31 0 6 -9
17 -20 25 -11 8 -20 19 -20 25 0 6 -8 20 -18 31 -10 10 -28 35 -42 54 -13 19
-27 37 -30 40 -3 3 -17 21 -30 40 -13 19 -31 42 -40 50 -9 8 -27 31 -40 50
-13 19 -40 51 -60 70 -19 20 -69 74 -110 120 -81 92 -126 136 -210 208 -30 26
-75 67 -100 92 -25 25 -61 56 -80 70 -19 13 -42 31 -50 40 -8 9 -31 27 -50 40
-19 13 -37 27 -40 30 -3 3 -21 17 -40 30 -19 14 -44 32 -54 42 -11 10 -26 18
-33 18 -7 0 -13 4 -13 8 0 5 -12 15 -27 23 -16 8 -37 22 -47 32 -11 9 -24 17
-28 17 -5 0 -18 9 -30 20 -12 11 -28 20 -35 20 -7 0 -13 4 -13 9 0 5 -8 11
-17 14 -18 6 -73 37 -83 47 -9 9 -65 41 -102 58 -21 9 -38 20 -38 24 0 5 -9 8
-20 8 -11 0 -20 5 -20 10 0 6 -9 10 -20 10 -11 0 -20 5 -20 10 0 6 -9 10 -20
10 -11 0 -20 5 -20 10 0 6 -9 10 -20 10 -11 0 -20 5 -20 10 0 6 -9 10 -20 10
-11 0 -20 5 -20 10 0 6 -6 10 -13 10 -12 0 -80 29 -119 50 -10 6 -25 10 -33
10 -8 0 -15 5 -15 10 0 6 -9 10 -20 10 -11 0 -29 5 -40 10 -11 6 -29 15 -40
20 -11 6 -29 10 -40 10 -11 0 -20 5 -20 10 0 6 -10 10 -23 10 -13 0 -27 4 -33
8 -5 5 -29 14 -54 21 -25 7 -53 17 -62 22 -10 5 -29 9 -43 9 -14 0 -25 4 -25
9 0 5 -15 11 -32 14 -55 9 -92 18 -113 27 -11 5 -33 11 -50 14 -16 2 -50 10
-75 16 -117 29 -294 58 -500 81 -113 12 -722 23 -733 13z m773 -53 c47 -6 117
-16 155 -21 39 -6 93 -13 120 -16 28 -3 54 -10 60 -15 5 -5 26 -9 46 -9 21 0
41 -4 44 -10 3 -5 24 -10 45 -10 21 0 42 -4 45 -10 3 -5 21 -10 40 -10 19 0
37 -4 40 -10 3 -5 19 -10 35 -10 16 0 32 -4 35 -10 3 -5 19 -10 35 -10 16 0
32 -4 35 -10 3 -5 17 -10 30 -10 13 0 27 -4 30 -10 3 -5 17 -10 30 -10 13 0
27 -4 30 -10 3 -5 17 -10 30 -10 13 0 27 -4 30 -10 3 -5 17 -10 31 -10 13 0
24 -4 24 -10 0 -5 9 -10 20 -10 11 0 28 -4 38 -9 9 -5 31 -14 47 -21 17 -7 38
-16 47 -21 10 -5 25 -9 33 -9 8 0 15 -4 15 -10 0 -5 7 -10 15 -10 8 0 23 -4
33 -9 74 -37 106 -51 118 -51 8 0 14 -4 14 -10 0 -5 9 -10 20 -10 11 0 20 -4
20 -10 0 -5 9 -10 19 -10 11 0 21 -3 23 -7 3 -7 55 -37 115 -67 13 -6 23 -14
23 -18 0 -5 9 -8 20 -8 11 0 20 -4 20 -9 0 -5 8 -11 18 -14 23 -8 76 -40 80
-49 2 -5 9 -8 16 -8 7 0 21 -8 32 -17 19 -17 38 -29 89 -57 11 -6 27 -19 36
-28 9 -10 20 -18 25 -18 5 0 25 -14 44 -30 19 -16 38 -30 43 -30 4 0 21 -13
39 -30 17 -16 35 -30 41 -30 5 0 17 -8 26 -18 9 -10 32 -29 51 -42 19 -13 51
-40 70 -60 19 -19 52 -48 74 -64 50 -38 298 -286 356 -356 25 -30 56 -66 70
-80 14 -14 37 -41 50 -60 14 -19 35 -45 47 -58 13 -13 23 -27 23 -32 0 -5 11
-20 25 -34 14 -14 25 -29 25 -33 0 -4 14 -24 30 -43 16 -19 30 -40 30 -45 0
-6 9 -17 20 -25 11 -8 20 -19 20 -25 0 -6 8 -20 18 -31 22 -25 52 -74 59 -96
3 -10 9 -18 14 -18 5 0 9 -6 9 -13 0 -7 9 -23 20 -35 11 -12 20 -28 20 -37 0
-8 3 -15 8 -15 4 0 12 -10 18 -23 30 -60 60 -112 67 -115 4 -2 7 -12 7 -23 0
-10 5 -19 10 -19 6 0 10 -9 10 -20 0 -11 5 -20 10 -20 6 0 10 -9 10 -20 0 -11
5 -20 10 -20 6 0 10 -9 10 -20 0 -11 5 -20 10 -20 6 0 10 -7 10 -15 0 -8 4
-23 10 -33 21 -39 50 -107 50 -119 0 -7 4 -13 8 -13 5 0 15 -22 22 -50 7 -27
17 -50 22 -50 4 0 8 -11 8 -24 0 -14 4 -27 8 -30 4 -3 14 -28 22 -56 8 -28 18
-53 22 -56 4 -3 8 -14 8 -25 0 -10 4 -27 9 -37 15 -29 31 -87 31 -110 0 -12 4
-22 9 -22 5 0 11 -15 14 -32 3 -18 10 -52 16 -75 28 -109 33 -131 42 -178 6
-27 12 -68 15 -90 3 -22 9 -49 14 -60 5 -11 11 -45 14 -75 3 -30 10 -93 16
-140 30 -252 30 -728 0 -975 -15 -129 -28 -217 -39 -270 -18 -87 -30 -149 -36
-185 -4 -19 -10 -44 -15 -55 -5 -11 -11 -32 -14 -47 -3 -16 -9 -40 -12 -55 -3
-16 -9 -37 -14 -48 -4 -11 -13 -40 -20 -65 -6 -25 -16 -53 -21 -62 -5 -10 -9
-27 -9 -37 0 -11 -4 -23 -10 -26 -5 -3 -10 -15 -10 -26 0 -10 -4 -28 -10 -39
-5 -11 -14 -29 -20 -40 -5 -11 -10 -29 -10 -40 0 -11 -4 -20 -10 -20 -5 0 -10
-11 -10 -24 0 -14 -4 -28 -10 -31 -5 -3 -10 -15 -10 -26 0 -10 -4 -19 -10 -19
-5 0 -10 -7 -10 -15 0 -8 -4 -24 -10 -35 -5 -11 -14 -29 -20 -40 -5 -11 -10
-27 -10 -35 0 -8 -4 -15 -10 -15 -5 0 -10 -9 -10 -20 0 -11 -4 -20 -10 -20 -5
0 -10 -9 -10 -20 0 -11 -4 -20 -10 -20 -5 0 -10 -9 -10 -20 0 -11 -4 -20 -10
-20 -5 0 -10 -9 -10 -20 0 -11 -4 -20 -10 -20 -5 0 -10 -9 -10 -20 0 -11 -4
-20 -10 -20 -5 0 -10 -9 -10 -20 0 -11 -4 -20 -9 -20 -5 0 -11 -8 -14 -17 -8
-24 -40 -77 -49 -81 -5 -2 -8 -12 -8 -23 0 -10 -4 -19 -10 -19 -5 0 -10 -6
-10 -13 0 -7 -9 -23 -20 -35 -11 -12 -20 -28 -20 -37 0 -8 -4 -15 -8 -15 -5 0
-15 -12 -23 -27 -8 -16 -22 -37 -31 -47 -10 -11 -18 -26 -18 -33 0 -7 -4 -13
-8 -13 -5 0 -15 -12 -23 -28 -8 -15 -22 -34 -31 -43 -10 -9 -18 -21 -18 -26 0
-5 -8 -18 -18 -29 -10 -10 -28 -35 -42 -54 -13 -19 -31 -42 -40 -50 -9 -8 -27
-31 -40 -50 -13 -19 -36 -46 -50 -60 -14 -14 -38 -43 -54 -64 -39 -51 -341
-353 -392 -392 -21 -16 -50 -40 -64 -54 -14 -14 -41 -37 -60 -50 -19 -13 -42
-31 -50 -40 -8 -9 -31 -27 -50 -40 -19 -14 -44 -32 -54 -42 -11 -10 -24 -18
-29 -18 -5 0 -17 -8 -26 -18 -9 -9 -28 -23 -43 -31 -16 -8 -28 -18 -28 -23 0
-4 -6 -8 -13 -8 -7 0 -22 -8 -33 -18 -10 -9 -31 -23 -46 -31 -16 -8 -28 -18
-28 -23 0 -4 -7 -8 -15 -8 -9 0 -25 -9 -37 -20 -12 -11 -28 -20 -35 -20 -7 0
-13 -4 -13 -10 0 -5 -9 -10 -20 -10 -11 0 -20 -4 -20 -9 0 -5 -8 -11 -17 -14
-24 -8 -77 -40 -81 -49 -2 -5 -12 -8 -23 -8 -10 0 -19 -4 -19 -10 0 -5 -9 -10
-20 -10 -11 0 -20 -4 -20 -10 0 -5 -9 -10 -20 -10 -11 0 -20 -4 -20 -10 0 -5
-9 -10 -20 -10 -11 0 -20 -4 -20 -10 0 -5 -9 -10 -20 -10 -11 0 -20 -4 -20
-10 0 -5 -9 -10 -20 -10 -11 0 -20 -4 -20 -10 0 -5 -7 -10 -15 -10 -8 0 -24
-4 -35 -10 -11 -5 -29 -14 -40 -20 -11 -5 -27 -10 -35 -10 -8 0 -15 -4 -15 -8
0 -5 -22 -15 -50 -22 -27 -7 -50 -17 -50 -22 0 -4 -9 -8 -20 -8 -11 0 -29 -4
-40 -10 -11 -5 -29 -14 -40 -20 -11 -5 -29 -10 -39 -10 -11 0 -23 -5 -26 -10
-3 -6 -15 -10 -26 -10 -10 0 -27 -4 -37 -9 -9 -5 -37 -15 -62 -21 -25 -7 -54
-16 -65 -20 -11 -5 -32 -11 -47 -14 -16 -3 -40 -9 -55 -12 -16 -3 -37 -9 -48
-14 -11 -5 -36 -11 -55 -15 -19 -3 -57 -10 -85 -16 -27 -5 -68 -12 -90 -15
-22 -3 -49 -9 -60 -14 -11 -5 -45 -11 -75 -14 -30 -3 -93 -10 -140 -16 -160
-19 -490 -28 -695 -19 -233 11 -361 24 -545 58 -30 6 -73 13 -95 16 -22 4 -49
10 -60 15 -11 5 -33 11 -50 14 -16 2 -50 10 -75 16 -25 6 -60 14 -77 17 -18 3
-33 9 -33 14 0 5 -11 9 -25 9 -14 0 -33 4 -43 9 -9 5 -64 24 -122 42 -58 18
-109 36 -115 41 -5 4 -19 8 -32 8 -13 0 -23 5 -23 10 0 6 -9 10 -19 10 -11 0
-23 5 -26 10 -3 6 -17 10 -31 10 -13 0 -24 5 -24 10 0 6 -7 10 -15 10 -8 0
-23 4 -33 10 -39 21 -107 50 -119 50 -7 0 -13 5 -13 10 0 6 -9 10 -20 10 -11
0 -20 5 -20 10 0 6 -9 10 -20 10 -11 0 -20 5 -20 10 0 6 -9 10 -20 10 -11 0
-20 5 -20 10 0 6 -9 10 -20 10 -11 0 -20 3 -20 8 0 4 -10 12 -23 17 -31 15
-111 59 -117 65 -10 10 -65 41 -82 47 -10 3 -18 9 -18 14 0 5 -6 9 -13 9 -7 0
-23 9 -35 20 -12 11 -28 20 -37 20 -8 0 -15 4 -15 8 0 5 -12 15 -27 23 -16 8
-35 22 -44 31 -9 10 -20 18 -25 18 -5 0 -25 14 -44 30 -19 16 -38 30 -43 30
-4 0 -21 14 -39 30 -17 17 -35 30 -41 30 -5 0 -17 8 -26 18 -9 9 -33 30 -54
46 -21 15 -53 42 -70 60 -18 17 -50 44 -71 60 -52 39 -314 301 -352 352 -16
21 -40 50 -54 64 -14 14 -37 41 -50 60 -13 19 -31 42 -40 50 -9 8 -27 31 -40
50 -13 19 -32 42 -42 51 -10 9 -18 20 -18 25 0 5 -14 25 -30 44 -16 19 -30 41
-30 48 0 6 -4 12 -8 12 -5 0 -15 12 -23 28 -8 15 -22 36 -31 46 -10 11 -18 26
-18 33 0 7 -4 13 -8 13 -5 0 -15 12 -23 27 -8 16 -16 30 -19 33 -10 10 -41 65
-47 83 -3 9 -9 17 -14 17 -5 0 -9 9 -9 20 0 11 -3 20 -7 20 -5 0 -13 10 -19
23 -42 83 -80 152 -86 155 -5 2 -8 10 -8 17 0 7 -9 30 -20 52 -37 73 -60 127
-60 140 0 7 -4 13 -10 13 -5 0 -10 7 -10 15 0 8 -4 23 -9 33 -5 9 -14 31 -21
47 -7 17 -16 38 -21 47 -5 10 -9 27 -9 38 0 11 -4 20 -10 20 -5 0 -10 11 -10
24 0 14 -4 28 -10 31 -5 3 -10 17 -10 30 0 13 -4 27 -10 30 -5 3 -10 17 -10
30 0 13 -4 27 -10 30 -5 3 -10 19 -10 36 0 16 -4 29 -10 29 -5 0 -10 13 -10
29 0 17 -4 33 -10 36 -5 3 -10 22 -10 41 0 19 -4 34 -10 34 -5 0 -10 15 -10
34 0 19 -4 38 -10 41 -5 3 -10 24 -10 45 0 21 -5 42 -10 45 -5 3 -10 25 -10
49 0 23 -4 46 -9 52 -5 5 -12 32 -15 59 -4 28 -11 82 -16 120 -29 197 -33 275
-33 615 0 340 4 415 32 615 6 39 13 90 16 115 3 25 10 54 15 65 8 19 15 54 26
143 4 23 10 42 15 42 5 0 9 18 9 40 0 22 4 40 9 40 8 0 11 11 27 103 3 20 10
37 15 37 5 0 9 13 9 29 0 17 5 33 10 36 6 3 10 17 10 30 0 13 5 27 10 30 6 3
10 17 10 31 0 13 5 24 10 24 6 0 10 14 10 30 0 17 4 30 8 30 5 0 15 23 22 50
7 28 16 50 20 50 4 0 13 23 20 50 7 28 17 50 22 50 4 0 8 9 8 20 0 11 5 20 10
20 6 0 10 7 10 15 0 8 4 23 9 33 5 9 31 62 58 117 69 138 97 189 106 193 4 2
7 12 7 23 0 10 5 19 10 19 6 0 10 6 10 13 0 7 9 23 20 35 11 12 20 28 20 37 0
8 4 15 9 15 5 0 14 14 21 30 7 17 16 30 21 30 5 0 9 6 9 13 0 7 9 23 20 35 11
12 20 25 20 29 0 4 11 21 25 37 14 16 25 33 25 37 0 4 6 14 13 21 7 7 24 29
37 48 13 19 27 37 30 40 3 3 17 21 30 40 13 19 31 42 40 50 9 8 27 31 40 50
13 19 40 51 60 70 19 19 48 52 63 73 36 48 266 278 314 314 21 15 54 44 73 63
19 20 51 47 70 60 19 13 42 31 50 40 8 9 31 27 50 40 19 13 37 27 40 30 3 3
21 17 40 30 19 13 41 30 48 37 7 7 17 13 21 13 4 0 21 11 37 25 16 14 33 25
37 25 4 0 17 9 29 20 12 11 28 20 35 20 7 0 13 4 13 9 0 5 14 14 30 21 17 7
30 16 30 21 0 5 7 9 15 9 9 0 25 9 37 20 12 11 28 20 35 20 7 0 13 5 13 10 0
6 9 10 20 10 11 0 20 3 20 8 0 4 10 12 23 18 12 6 78 40 147 75 140 71 201 99
218 99 7 0 12 5 12 10 0 6 9 10 19 10 11 0 23 5 26 10 3 6 17 10 31 10 13 0
24 4 24 8 0 5 23 15 50 22 28 7 50 17 50 22 0 4 14 8 30 8 17 0 30 5 30 10 0
6 11 10 24 10 14 0 28 5 31 10 3 6 17 10 30 10 13 0 27 5 30 10 3 6 19 10 36
10 16 0 29 4 29 9 0 5 16 12 35 15 19 3 51 9 70 12 19 3 35 10 35 15 0 5 15 9
34 9 19 0 38 5 41 10 3 6 24 10 45 10 21 0 42 5 45 10 3 6 25 10 49 10 23 0
46 4 52 9 5 5 32 12 59 15 28 4 82 11 120 16 39 6 110 14 158 19 48 5 91 11
94 15 11 11 738 -1 833 -13z"/>
<path d="M5876 6679 c-21 -11 -41 -29 -43 -40 -3 -10 -9 -19 -14 -19 -5 0 -9
-18 -9 -40 0 -22 5 -40 10 -40 6 0 10 -7 10 -16 0 -17 14 -32 48 -51 26 -15
112 -17 112 -3 0 6 7 10 16 10 8 0 22 6 30 14 8 8 14 22 14 30 0 9 5 16 10 16
6 0 10 14 10 32 0 56 -76 129 -134 128 -12 -1 -38 -10 -60 -21z"/>
<path d="M4125 6644 c-8 -20 -15 -43 -15 -50 0 -8 -4 -14 -10 -14 -5 0 -10 -9
-10 -20 0 -11 -4 -20 -10 -20 -5 0 -10 -7 -10 -15 0 -15 -4 -25 -28 -72 -7
-13 -12 -30 -12 -38 0 -8 -4 -15 -10 -15 -5 0 -10 -6 -10 -13 0 -7 -9 -32 -20
-55 -11 -22 -20 -48 -20 -57 0 -8 -4 -15 -10 -15 -5 0 -10 -9 -10 -20 0 -11
-4 -20 -10 -20 -5 0 -10 -7 -10 -15 0 -15 -4 -25 -28 -72 -7 -13 -12 -30 -12
-38 0 -8 -4 -15 -10 -15 -5 0 -10 -7 -10 -15 0 -8 -4 -24 -10 -35 -5 -11 -14
-29 -20 -40 -5 -11 -10 -27 -10 -35 0 -8 -4 -15 -10 -15 -5 0 -10 -9 -10 -20
0 -11 -4 -20 -8 -20 -5 0 -15 -22 -22 -50 -7 -27 -17 -50 -22 -50 -4 0 -8 -9
-8 -20 0 -11 -4 -20 -10 -20 -5 0 -10 -7 -10 -15 0 -8 -4 -24 -10 -35 -5 -11
-14 -29 -20 -40 -5 -11 -10 -27 -10 -35 0 -8 -4 -15 -10 -15 -5 0 -10 -9 -10
-19 0 -11 -6 -21 -12 -24 -10 -3 -10 -7 1 -20 11 -14 32 -17 108 -17 64 0 98
4 106 13 19 21 37 56 37 72 0 8 5 15 10 15 6 0 10 11 10 24 0 14 5 28 10 31 6
3 10 15 10 26 0 10 4 19 9 19 5 0 11 12 13 28 l3 27 243 3 c254 2 272 0 272
-42 0 -8 5 -18 10 -21 6 -3 10 -17 10 -31 0 -13 5 -24 10 -24 6 0 10 -9 10
-19 0 -11 5 -23 10 -26 6 -3 10 -13 10 -22 0 -8 9 -28 21 -44 20 -29 22 -29
118 -29 80 0 101 3 112 17 11 13 11 17 2 20 -7 3 -13 11 -13 19 0 8 -5 24 -12
37 -24 47 -28 57 -28 72 0 8 -4 15 -10 15 -5 0 -10 7 -10 15 0 8 -5 25 -12 38
-24 47 -28 57 -28 72 0 8 -4 15 -10 15 -5 0 -10 9 -10 20 0 11 -4 20 -10 20
-5 0 -10 11 -10 24 0 14 -4 28 -10 31 -5 3 -10 15 -10 26 0 10 -4 19 -10 19
-5 0 -10 9 -10 20 0 11 -4 20 -8 20 -5 0 -15 23 -22 50 -7 28 -17 50 -22 50
-4 0 -8 9 -8 20 0 11 -4 20 -10 20 -5 0 -10 7 -10 15 0 8 -4 24 -10 35 -5 11
-14 29 -20 40 -5 11 -10 27 -10 35 0 8 -4 15 -10 15 -5 0 -10 7 -10 15 0 15
-4 25 -28 72 -7 13 -12 30 -12 38 0 8 -4 15 -10 15 -5 0 -10 7 -10 15 0 8 -4
24 -10 35 -5 11 -14 29 -20 40 -5 11 -10 27 -10 35 0 8 -4 15 -10 15 -5 0 -10
6 -10 13 0 7 -6 25 -12 40 -13 26 -15 27 -105 27 l-93 0 -15 -36z m109 -240
c9 -3 16 -15 16 -25 0 -11 5 -29 12 -42 24 -48 28 -57 28 -77 0 -11 5 -20 10
-20 6 0 10 -9 10 -20 0 -20 4 -29 28 -77 7 -13 12 -32 12 -43 0 -11 5 -20 10
-20 6 0 10 -11 10 -24 0 -14 5 -28 10 -31 6 -3 10 -15 10 -26 0 -18 -8 -19
-160 -19 l-160 0 0 29 c0 17 5 33 10 36 6 3 10 17 10 31 0 13 4 24 8 24 5 0
15 23 22 50 7 28 17 50 22 50 4 0 8 9 8 20 0 11 5 29 10 40 6 11 15 29 20 40
6 11 10 29 10 40 0 11 5 20 10 20 6 0 10 11 10 25 0 27 1 28 24 19z"/>
<path d="M8566 6524 c-3 -9 -6 -58 -6 -110 l0 -94 -75 0 -75 0 0 -85 0 -85 69
0 c39 0 72 -4 75 -8 2 -4 7 -113 9 -242 4 -157 9 -236 16 -238 6 -2 11 -12 11
-23 0 -10 5 -19 10 -19 6 0 10 -6 10 -14 0 -40 177 -94 245 -75 16 5 44 9 60
9 47 0 55 15 55 102 0 61 -3 78 -14 78 -8 0 -18 -4 -21 -10 -3 -5 -31 -10 -61
-10 -46 0 -59 4 -81 26 -25 25 -26 29 -31 198 -2 96 -2 185 2 199 6 26 8 26
104 29 l97 3 3 83 3 82 -100 0 c-116 0 -113 -3 -111 110 1 41 1 83 1 93 -1 15
-12 17 -95 17 -76 0 -95 -3 -100 -16z"/>
<path d="M5245 6327 c-16 -7 -32 -14 -35 -17 -3 -3 -22 -18 -42 -33 -21 -15
-38 -35 -38 -43 0 -7 -4 -14 -10 -14 -5 0 -10 23 -10 50 l0 51 -97 -3 -98 -3
-3 -373 c-2 -319 0 -375 13 -388 11 -11 34 -14 97 -12 l83 3 6 230 c3 127 10
245 14 264 8 37 65 101 90 101 8 0 15 5 15 10 0 14 86 12 113 -2 36 -21 65
-59 72 -97 4 -20 10 -142 14 -271 l6 -235 83 -3 c62 -2 86 1 97 12 12 12 15
60 15 280 0 166 -4 267 -10 271 -5 3 -10 22 -10 41 0 19 -4 34 -10 34 -5 0
-10 8 -10 17 0 25 -96 113 -130 120 -17 3 -33 10 -36 14 -7 13 -143 9 -179 -4z"/>
<path d="M6563 6327 c-18 -6 -33 -15 -33 -19 0 -4 -6 -8 -13 -8 -16 0 -67 -52
-67 -68 0 -7 -4 -12 -10 -12 -5 0 -10 23 -10 50 l0 50 -94 0 c-76 0 -95 -3
-100 -16 -3 -9 -6 -178 -6 -376 0 -303 2 -362 15 -374 11 -11 35 -14 97 -12
l83 3 6 225 c4 124 10 241 14 262 8 40 63 108 89 108 9 0 16 5 16 10 0 6 24
10 53 10 40 0 58 -5 78 -23 47 -41 49 -51 49 -317 0 -208 3 -254 15 -266 11
-11 35 -14 97 -12 l83 3 6 230 c3 127 10 245 14 264 9 40 47 85 88 106 34 17
117 20 117 5 0 -5 7 -10 16 -10 20 0 44 -24 44 -44 0 -9 5 -16 10 -16 6 0 10
-92 10 -256 0 -211 3 -258 15 -270 11 -11 35 -14 97 -12 l83 3 3 289 c1 186
-1 293 -8 300 -5 5 -10 19 -10 30 0 12 -9 32 -20 46 -11 14 -20 29 -20 34 0
12 -53 56 -67 56 -7 0 -13 5 -13 10 0 6 -11 10 -24 10 -14 0 -28 5 -31 10 -3
6 -42 10 -86 10 -46 0 -79 -4 -79 -10 0 -5 -13 -10 -30 -10 -16 0 -30 -4 -30
-8 0 -5 -12 -15 -27 -23 -35 -18 -53 -34 -53 -49 0 -29 -32 -18 -80 29 -33 33
-61 51 -76 51 -13 0 -24 5 -24 10 0 13 -145 10 -187 -3z"/>
<path d="M7860 6330 c-8 -5 -27 -10 -42 -10 -15 0 -30 -4 -33 -10 -3 -5 -17
-10 -31 -10 -13 0 -24 -4 -24 -10 0 -5 -6 -10 -13 -10 -7 0 -30 -15 -50 -34
l-37 -33 44 -47 c30 -32 52 -46 70 -46 14 0 26 4 26 9 0 5 20 18 45 30 35 16
64 21 130 21 50 0 85 -4 85 -10 0 -5 7 -10 16 -10 29 0 64 -51 64 -94 0 -23
-3 -25 -75 -30 -41 -3 -109 -9 -150 -12 -41 -3 -75 -10 -75 -15 0 -5 -13 -9
-30 -9 -16 0 -30 -4 -30 -10 0 -5 -9 -10 -20 -10 -11 0 -20 -4 -20 -10 0 -5
-7 -10 -16 -10 -19 0 -84 -68 -84 -87 0 -7 -4 -13 -10 -13 -6 0 -10 -37 -10
-90 0 -53 4 -90 10 -90 6 0 10 -7 10 -16 0 -21 88 -104 110 -104 9 0 21 -5 28
-12 16 -16 218 -16 234 0 7 7 19 12 27 12 8 0 32 18 53 40 22 22 41 40 44 40
2 0 4 -17 4 -39 0 -54 15 -62 102 -59 l73 3 3 289 c1 159 -2 294 -6 300 -5 6
-12 24 -16 39 -8 33 -96 127 -119 127 -9 0 -17 5 -17 10 0 6 -13 10 -29 10
-17 0 -33 5 -36 10 -8 13 -185 13 -205 0z m239 -449 c11 -7 11 -15 2 -41 -6
-18 -11 -42 -11 -52 0 -24 -61 -88 -84 -88 -9 0 -16 -4 -16 -10 0 -14 -116
-12 -143 3 -47 26 -57 40 -57 79 0 40 34 88 63 88 7 0 17 4 23 9 8 9 38 12
174 19 19 1 41 -2 49 -7z"/>
<path d="M9410 6330 c0 -5 -13 -10 -30 -10 -27 0 -45 -8 -120 -52 -37 -21
-110 -96 -110 -113 0 -8 -3 -15 -8 -15 -4 0 -13 -15 -20 -32 -7 -18 -18 -41
-23 -50 -12 -24 -12 -235 1 -243 6 -3 10 -17 10 -31 0 -13 5 -24 10 -24 6 0
10 -6 10 -13 0 -7 8 -22 18 -33 9 -10 30 -36 45 -57 15 -20 34 -37 40 -37 7 0
19 -9 27 -20 8 -11 22 -20 32 -20 10 0 18 -4 18 -10 0 -5 10 -10 23 -10 13 0
28 -5 34 -11 17 -17 219 -16 276 1 26 8 47 18 47 22 0 4 7 8 15 8 22 0 125 88
125 107 0 5 -12 16 -27 25 -16 9 -41 28 -58 42 -36 31 -65 33 -85 6 -8 -11
-18 -20 -23 -20 -5 0 -22 -9 -38 -21 -24 -17 -44 -20 -115 -21 -48 0 -90 4
-93 9 -3 4 -18 14 -33 22 -15 8 -33 27 -40 43 -7 15 -16 28 -20 28 -5 0 -8 13
-8 30 l0 30 288 2 287 3 3 74 c2 42 -2 79 -8 85 -5 5 -10 25 -10 43 0 18 -4
33 -10 33 -5 0 -10 6 -10 13 0 18 -24 67 -32 67 -5 0 -8 6 -8 14 0 18 -68 86
-86 86 -8 0 -14 5 -14 10 0 6 -9 10 -20 10 -11 0 -20 5 -20 10 0 6 -13 10 -30
10 -16 0 -30 5 -30 10 0 6 -37 10 -90 10 -53 0 -90 -4 -90 -10z m160 -160 c0
-5 7 -10 16 -10 21 0 64 -49 64 -72 0 -9 5 -20 10 -23 6 -3 10 -15 10 -26 0
-18 -9 -19 -190 -19 -182 0 -190 1 -190 20 0 21 32 84 55 106 7 8 21 14 29 14
9 0 16 5 16 10 0 6 37 10 90 10 53 0 90 -4 90 -10z"/>
<path d="M5846 6311 c-8 -12 -8 -734 0 -754 9 -24 179 -25 188 -1 3 9 6 177 6
374 0 197 -3 365 -6 374 -5 13 -23 16 -94 16 -49 0 -91 -4 -94 -9z"/>
<path d="M3670 10171 c-8 -5 -28 -15 -45 -22 -38 -18 -95 -74 -95 -93 0 -8 -4
-18 -10 -21 -14 -9 -12 -61 3 -87 30 -53 58 -72 108 -72 41 0 52 5 74 30 14
16 25 36 25 45 0 30 -25 69 -53 82 -37 16 -31 34 21 63 43 25 132 34 132 14 0
-5 14 -10 30 -10 17 0 30 -4 30 -10 0 -5 6 -10 13 -10 20 0 107 -85 107 -104
0 -9 5 -16 10 -16 6 0 10 -8 10 -17 1 -10 7 -29 15 -43 14 -24 14 -22 8 25 -3
28 -10 52 -15 53 -4 2 -8 11 -8 19 0 20 -126 143 -145 143 -8 0 -15 5 -15 10
0 6 -11 10 -24 10 -14 0 -28 5 -31 10 -7 12 -124 12 -145 1z"/>
<path d="M9690 10170 c0 -5 -9 -10 -20 -10 -51 0 -177 -108 -205 -177 -17 -41
-20 -83 -5 -83 6 0 10 14 10 30 0 17 4 30 9 30 5 0 12 9 16 19 7 23 59 81 72
81 4 0 19 9 33 20 14 11 35 20 47 20 12 0 25 5 28 10 11 17 76 11 127 -12 54
-24 62 -48 23 -66 -34 -16 -59 -76 -42 -105 24 -43 39 -51 90 -51 46 0 53 3
84 39 36 42 44 96 21 137 -20 35 -71 82 -103 97 -17 7 -38 17 -47 22 -24 12
-138 11 -138 -1z"/>
<path d="M3090 9490 c0 -16 5 -30 10 -30 6 0 10 -10 10 -22 0 -13 9 -34 20
-48 11 -14 20 -29 20 -34 0 -5 9 -17 21 -27 23 -20 18 -30 -26 -55 -27 -14
-58 -82 -51 -108 12 -45 22 -50 47 -27 12 11 30 21 39 21 9 0 21 5 27 11 18
18 223 -3 223 -22 0 -5 9 -9 20 -9 13 0 20 7 20 20 0 11 -4 20 -9 20 -19 0
-40 205 -22 223 6 6 11 18 11 27 0 9 10 27 21 39 23 25 18 35 -27 47 -26 7
-94 -24 -108 -51 -24 -43 -35 -49 -54 -28 -24 26 -89 63 -113 63 -10 0 -19 5
-19 10 0 6 -13 10 -30 10 -27 0 -30 -3 -30 -30z"/>
<path d="M3533 9475 c-24 -24 -43 -51 -43 -60 0 -8 -4 -15 -10 -15 -14 0 -12
-132 2 -180 7 -22 16 -40 20 -40 5 0 8 -9 8 -20 0 -11 5 -20 10 -20 6 0 10 -7
10 -16 0 -20 29 -49 38 -39 4 4 1 10 -5 12 -7 3 -13 18 -13 33 0 16 -4 32 -10
35 -5 3 -10 43 -10 88 0 64 4 89 20 115 20 32 74 72 98 72 7 0 20 6 28 14 11
12 12 20 2 40 -10 23 -17 26 -57 26 -41 -1 -51 -5 -88 -45z"/>
<path d="M9830 9500 c-15 -27 -3 -60 20 -60 28 0 88 -39 95 -61 4 -10 11 -19
16 -19 12 0 7 -187 -6 -232 -4 -16 -3 -28 1 -28 10 0 54 89 54 108 0 7 5 12
10 12 15 0 13 166 -2 193 -7 12 -32 41 -54 64 -35 37 -47 43 -82 43 -31 0 -44
-5 -52 -20z"/>
<path d="M10037 9506 c-16 -12 -15 -46 2 -46 3 0 12 -18 19 -40 14 -45 16
-180 3 -180 -5 0 -11 -15 -13 -32 -3 -18 -8 -41 -13 -50 -5 -14 -2 -18 14 -18
12 0 21 5 21 10 0 6 15 10 34 10 19 0 38 5 41 10 3 6 37 10 75 10 38 0 72 -4
75 -10 3 -5 14 -10 24 -10 9 0 27 -9 40 -21 22 -20 23 -20 36 -3 17 22 20 70
5 79 -5 3 -10 13 -10 21 0 16 -23 44 -37 44 -4 0 -16 7 -26 15 -18 13 -17 15
12 46 17 17 31 38 31 45 0 8 3 14 8 14 9 0 32 72 32 100 0 22 -26 27 -58 12
-9 -5 -38 -19 -64 -31 -25 -13 -56 -32 -68 -43 -21 -19 -22 -19 -35 -2 -8 11
-15 24 -15 30 0 12 -81 54 -102 54 -7 0 -21 -7 -31 -14z"/>
<path d="M3210 9130 c0 -5 -7 -10 -15 -10 -9 0 -36 -20 -60 -44 -40 -39 -45
-49 -45 -88 0 -38 4 -46 26 -56 20 -10 28 -9 40 2 8 8 14 21 14 28 0 24 40 78
72 98 26 16 51 20 120 20 47 0 88 -4 90 -8 2 -5 20 -12 41 -15 32 -5 35 -4 23
9 -8 8 -22 14 -30 14 -9 0 -16 5 -16 10 0 6 -9 10 -20 10 -11 0 -20 3 -20 8 0
4 -18 13 -40 20 -48 14 -180 16 -180 2z"/>
<path d="M10103 9127 c-18 -6 -33 -15 -33 -19 0 -4 -9 -8 -20 -8 -11 0 -20 -3
-20 -8 0 -4 -13 -13 -30 -20 -29 -13 -41 -32 -20 -32 6 0 10 5 10 10 0 6 13
10 29 10 17 0 33 5 36 10 3 6 44 10 91 10 70 0 90 -4 119 -22 19 -13 37 -31
41 -40 3 -10 10 -18 15 -18 5 0 9 -12 9 -26 0 -14 7 -32 16 -41 13 -13 19 -14
40 -3 20 11 24 21 24 58 0 39 -5 50 -44 88 -24 24 -51 44 -60 44 -9 0 -16 5
-16 10 0 13 -145 10 -187 -3z"/>
<path d="M2575 9090 c-3 -5 -13 -10 -21 -10 -19 0 -75 -57 -93 -95 -7 -17 -17
-38 -22 -47 -12 -24 -11 -135 1 -143 6 -3 10 -17 10 -31 0 -13 5 -24 10 -24 6
0 10 -7 10 -15 0 -19 125 -145 144 -145 8 0 16 -4 18 -8 2 -5 25 -12 53 -16
45 -6 47 -5 30 9 -11 8 -30 15 -42 15 -13 0 -23 5 -23 10 0 6 -6 10 -13 10
-35 0 -127 116 -127 160 0 10 -4 22 -10 25 -5 3 -10 26 -10 51 0 24 5 44 10
44 6 0 10 7 10 15 0 21 30 65 44 65 6 0 17 -13 24 -30 8 -18 21 -30 33 -30 10
0 19 -4 19 -10 0 -19 45 -10 74 15 25 22 30 33 30 74 0 52 -19 81 -69 107 -32
16 -81 18 -90 4z"/>
<path d="M10836 9087 c-52 -32 -66 -55 -66 -108 0 -54 17 -80 62 -95 33 -10
98 30 98 60 0 9 8 16 19 16 24 0 61 -76 61 -125 0 -40 -21 -115 -32 -115 -5 0
-8 -7 -8 -15 0 -20 -85 -105 -105 -105 -8 0 -15 -4 -15 -10 0 -5 -8 -10 -17
-10 -10 -1 -29 -7 -43 -14 -23 -13 -21 -14 25 -9 28 3 52 10 53 14 2 5 11 9
19 9 22 0 143 121 143 143 0 9 3 17 8 17 13 0 32 78 32 133 0 33 -8 69 -21 96
-23 49 -81 111 -103 111 -8 0 -18 5 -21 10 -8 14 -65 12 -89 -3z"/>
<path d="M3210 8870 c0 -5 -6 -10 -14 -10 -14 0 -96 -39 -106 -50 -3 -3 -21
-17 -40 -30 -19 -13 -38 -28 -42 -34 -6 -9 -32 -14 -128 -22 -51 -5 -77 -12
-122 -35 -10 -5 -29 -9 -43 -9 -43 0 -31 -37 23 -67 26 -15 92 -17 92 -3 0 6
6 10 13 10 7 0 23 9 35 20 26 25 32 25 32 2 0 -10 -9 -24 -20 -32 -11 -8 -20
-20 -20 -26 0 -6 -13 -25 -30 -42 -16 -18 -30 -36 -30 -40 0 -5 -13 -23 -30
-40 -16 -18 -30 -35 -30 -40 0 -10 -82 -104 -141 -162 -71 -71 -108 -100 -124
-100 -8 0 -15 -4 -15 -10 0 -5 -9 -10 -20 -10 -11 0 -20 -4 -20 -10 0 -5 -11
-10 -24 -10 -14 0 -28 -4 -31 -10 -3 -5 -37 -10 -75 -10 -38 0 -72 5 -75 10
-3 6 -14 10 -24 10 -19 0 -79 53 -98 88 -7 12 -13 45 -13 73 0 45 4 55 34 85
19 19 43 34 53 34 55 0 100 -53 88 -103 -4 -14 -2 -27 3 -31 18 -11 90 33 106
65 18 36 21 114 6 124 -5 3 -10 13 -10 22 0 23 -70 83 -97 83 -13 0 -23 5 -23
10 0 20 -117 3 -140 -20 -3 -3 -14 -10 -25 -16 -35 -19 -83 -91 -100 -151 -14
-47 -15 -64 -5 -98 6 -22 17 -57 22 -78 13 -42 87 -127 112 -127 9 0 16 -3 16
-8 0 -14 80 -32 144 -32 62 0 76 4 153 36 39 18 43 17 43 -1 0 -8 -4 -15 -8
-15 -9 0 -40 -67 -60 -131 -28 -85 -2 -198 61 -261 23 -23 37 -28 76 -28 106
0 125 110 26 149 -30 11 -40 27 -66 103 -10 29 -10 45 -1 76 7 22 12 49 12 61
0 12 4 29 9 39 5 9 17 34 26 55 9 20 26 47 38 60 12 12 34 38 48 57 15 19 43
53 63 74 20 22 36 44 36 49 0 9 25 37 34 37 3 0 6 -16 6 -35 0 -32 -12 -64
-47 -130 -34 -63 -35 -72 -22 -111 16 -43 64 -98 95 -106 17 -4 20 -1 16 22
-2 17 8 53 28 94 25 52 32 78 31 123 0 32 -5 59 -11 61 -5 2 -10 9 -10 16 0 7
-15 29 -34 50 -37 39 -38 58 -4 87 10 9 18 20 18 25 0 11 45 64 54 64 3 0 6
-12 6 -26 0 -46 48 -114 82 -114 15 0 18 9 18 59 0 33 5 63 10 66 6 3 10 19
10 35 0 16 -4 32 -10 35 -5 3 -10 17 -10 30 0 13 5 27 10 30 6 3 10 13 10 21
0 29 68 85 155 127 22 11 48 23 57 28 10 5 25 9 33 9 8 0 15 5 15 10 0 6 -13
10 -30 10 -16 0 -30 -4 -30 -10z"/>
<path d="M10230 8870 c0 -5 11 -10 24 -10 14 0 28 -4 31 -10 3 -5 15 -10 26
-10 10 0 19 -4 19 -10 0 -5 9 -10 20 -10 11 0 20 -4 20 -10 0 -5 6 -10 14 -10
23 0 114 -92 121 -123 4 -15 4 -40 0 -55 -3 -15 -6 -34 -5 -42 11 -153 12
-160 29 -160 23 0 61 28 61 46 0 8 5 14 10 14 6 0 10 18 10 40 0 22 2 40 5 40
9 0 55 -48 55 -57 0 -4 13 -24 30 -43 l29 -35 -28 -30 c-59 -63 -71 -90 -71
-154 0 -34 4 -61 10 -61 6 0 10 -9 10 -20 0 -11 5 -20 10 -20 6 0 10 -9 10
-20 0 -11 5 -20 11 -20 7 0 10 -17 7 -45 -3 -41 -1 -44 17 -38 22 7 74 57 93
91 14 26 16 78 2 87 -5 3 -10 13 -10 21 0 9 -7 22 -15 31 -9 8 -19 28 -22 44
-3 16 -9 29 -14 29 -5 0 -9 18 -9 40 0 22 3 40 6 40 8 0 26 -20 54 -60 13 -19
31 -42 40 -50 8 -8 36 -40 60 -70 25 -30 48 -56 53 -58 4 -2 7 -12 7 -23 0
-10 5 -19 10 -19 6 0 10 -9 10 -19 0 -11 5 -23 10 -26 6 -3 10 -21 10 -40 0
-19 5 -37 10 -40 12 -8 13 -99 1 -123 -5 -9 -14 -29 -22 -45 -7 -15 -29 -34
-51 -44 -21 -9 -38 -23 -38 -30 0 -7 -4 -13 -10 -13 -18 0 -10 -49 12 -75 40
-46 145 -30 170 27 7 15 16 28 20 28 5 0 8 11 8 24 0 14 5 28 10 31 14 8 13
120 -1 164 -6 20 -25 62 -41 94 l-30 59 24 -7 c13 -4 27 -11 33 -16 5 -5 19
-9 31 -9 13 0 26 -4 29 -10 8 -14 147 -13 182 1 64 26 80 36 120 76 24 23 43
49 43 58 0 8 4 15 9 15 17 0 37 158 22 173 -6 6 -11 19 -11 29 0 41 -75 138
-107 138 -7 0 -13 3 -13 8 0 9 -73 32 -104 32 -14 0 -27 -4 -30 -9 -3 -4 -19
-11 -35 -14 -35 -7 -91 -62 -91 -88 0 -10 -4 -21 -10 -24 -25 -15 -9 -91 29
-138 19 -23 79 -52 89 -42 4 3 7 27 7 52 1 35 6 48 25 64 14 10 35 19 48 19
28 0 72 -28 72 -46 0 -8 5 -14 10 -14 6 0 10 -28 10 -64 0 -61 -2 -65 -40
-105 -22 -22 -56 -47 -76 -56 -41 -17 -164 -21 -164 -5 0 6 -13 10 -30 10 -16
0 -30 5 -30 10 0 6 -9 10 -20 10 -11 0 -20 5 -20 10 0 6 -6 10 -12 10 -31 0
-183 148 -248 241 -13 19 -32 41 -42 50 -10 9 -18 21 -18 26 0 5 -8 18 -18 29
-10 10 -28 35 -42 54 -13 19 -32 42 -42 51 -19 18 -24 49 -8 49 6 0 10 -4 10
-8 0 -13 80 -52 106 -52 41 0 94 37 94 64 0 11 -9 16 -30 16 -16 0 -30 5 -30
10 0 6 -11 10 -24 10 -14 0 -28 5 -31 10 -3 6 -33 10 -65 10 -32 0 -62 5 -66
11 -3 6 -16 8 -29 5 -17 -4 -33 3 -61 29 -21 19 -43 35 -50 35 -7 0 -14 4 -16
8 -6 14 -78 52 -99 52 -10 0 -19 5 -19 10 0 6 -13 10 -30 10 -16 0 -30 -4 -30
-10z"/>
<path d="M2008 8019 c-13 -7 -18 -22 -18 -50 0 -36 6 -47 56 -95 31 -30 63
-54 70 -54 8 0 14 -4 14 -9 0 -5 8 -11 18 -14 9 -4 36 -17 59 -31 24 -15 45
-21 48 -16 3 6 -1 10 -9 10 -9 0 -16 4 -16 8 0 4 -13 16 -30 25 -44 27 -131
114 -132 134 -1 10 1 30 5 45 11 44 -26 70 -65 47z"/>
<path d="M11443 8024 c-15 -7 -17 -48 -3 -74 8 -15 -1 -29 -53 -82 -62 -62
-104 -94 -114 -85 -2 3 14 24 36 47 23 23 41 49 41 56 0 8 5 14 10 14 6 0 10
16 10 36 0 53 -38 82 -68 52 -14 -14 -16 -68 -2 -68 6 0 10 -9 10 -20 0 -11
-4 -20 -10 -20 -5 0 -10 -9 -10 -20 0 -11 -4 -20 -8 -20 -4 0 -16 -13 -25 -30
-16 -26 -16 -30 -3 -30 19 0 21 -16 4 -23 -8 -2 -9 -8 -4 -13 5 -5 11 -4 13 4
3 6 13 12 24 12 10 0 19 5 19 10 0 6 6 10 13 10 7 0 23 9 35 20 12 11 25 20
31 20 5 0 35 24 66 54 52 49 58 58 58 95 0 23 -2 43 -4 45 -8 8 -54 15 -66 10z"/>
<path d="M1762 7948 c-19 -19 -14 -57 11 -82 24 -24 55 -33 150 -43 31 -3 60
-9 63 -14 3 -5 23 -9 44 -9 22 0 40 -5 43 -12 2 -7 8 -10 12 -6 10 9 -19 38
-39 38 -9 0 -16 4 -16 9 0 5 -13 14 -30 21 -16 7 -30 15 -30 19 0 4 -12 14
-27 23 -16 9 -41 28 -58 42 -33 28 -101 36 -123 14z"/>
<path d="M11636 7947 c-11 -7 -33 -24 -49 -39 -17 -16 -34 -28 -39 -28 -5 0
-18 -9 -30 -20 -12 -11 -28 -20 -35 -20 -7 0 -13 -4 -13 -10 0 -5 -7 -10 -16
-10 -19 0 -49 -28 -40 -37 3 -4 12 -1 18 5 7 7 26 12 43 12 17 0 35 4 41 9 5
5 34 12 64 14 88 9 122 18 146 42 46 46 28 95 -35 94 -20 0 -45 -6 -55 -12z"/>
<path d="M1893 7737 c-31 -30 -30 -70 1 -87 21 -11 27 -10 40 3 9 9 16 21 16
27 0 31 29 40 124 40 57 0 96 -4 96 -10 0 -5 14 -10 30 -10 17 0 30 5 30 10 0
6 -11 10 -24 10 -14 0 -28 5 -31 10 -3 6 -21 10 -40 10 -19 0 -37 5 -40 10 -3
6 -45 10 -93 9 -76 0 -90 -3 -109 -22z"/>
<path d="M11410 7750 c0 -5 -18 -10 -40 -10 -22 0 -40 -4 -40 -10 0 -5 -13
-10 -30 -10 -16 0 -30 -4 -30 -10 0 -5 13 -10 29 -10 17 0 33 5 36 10 3 6 47
10 96 10 90 0 119 -10 119 -40 0 -6 6 -18 14 -26 30 -29 66 -5 66 44 0 47 -33
62 -135 62 -50 0 -85 -4 -85 -10z"/>
<path d="M2436 7611 c-3 -4 -19 -11 -35 -14 -16 -3 -35 -12 -42 -19 -8 -7 -25
-19 -40 -26 -14 -7 -36 -31 -49 -53 -14 -21 -28 -39 -32 -39 -5 0 -8 -9 -8
-20 0 -11 -4 -20 -10 -20 -5 0 -10 -13 -10 -30 0 -16 -4 -30 -10 -30 -5 0 -10
-12 -10 -26 0 -14 -4 -23 -10 -19 -5 3 -10 15 -10 26 0 10 -4 19 -10 19 -5 0
-10 9 -10 20 0 11 -4 20 -10 20 -5 0 -10 6 -10 14 0 19 -107 126 -126 126 -8
0 -14 3 -14 8 0 23 -171 44 -185 22 -3 -5 -17 -10 -31 -10 -13 0 -24 -4 -24
-10 0 -5 -6 -10 -14 -10 -19 0 -106 -87 -106 -106 0 -8 -4 -14 -8 -14 -4 0
-14 -28 -21 -61 -11 -48 -11 -69 -3 -94 7 -17 12 -39 12 -48 0 -9 4 -17 9 -17
5 0 11 -9 14 -20 3 -10 26 -33 53 -50 39 -24 58 -30 106 -30 32 0 58 4 58 10
0 6 7 10 15 10 20 0 65 45 65 65 0 8 5 15 10 15 14 0 13 66 -1 93 -19 36 -33
38 -57 9 -59 -68 -168 -3 -138 83 6 16 25 44 41 60 44 44 134 71 150 45 3 -5
17 -10 31 -10 13 0 24 -4 24 -10 0 -5 7 -10 16 -10 19 0 84 -68 84 -87 0 -7 5
-13 10 -13 6 0 10 -9 10 -20 0 -11 4 -20 8 -20 20 0 57 -210 48 -271 -4 -24
-9 -78 -12 -119 -3 -41 -9 -84 -14 -95 -5 -11 -11 -45 -14 -75 -13 -132 -18
-160 -31 -160 -8 0 -16 19 -20 48 -5 36 -15 54 -42 80 -40 36 -96 45 -107 16
-9 -22 -8 -24 9 -24 8 0 15 -9 15 -20 0 -11 5 -20 10 -20 6 0 10 -9 10 -20 0
-11 5 -20 10 -20 6 0 10 -8 10 -17 0 -10 14 -29 30 -42 17 -13 30 -29 30 -35
0 -7 9 -22 21 -35 26 -28 39 -72 39 -133 0 -26 5 -50 10 -53 6 -3 10 -17 10
-30 0 -13 5 -27 10 -30 6 -3 10 -15 10 -26 0 -10 5 -19 10 -19 6 0 10 -6 10
-13 0 -8 9 -22 20 -32 25 -23 25 -15 0 37 -11 23 -20 48 -20 55 0 7 -4 13 -10
13 -5 0 -10 14 -10 30 0 17 -4 30 -10 30 -6 0 -10 37 -10 90 0 53 4 90 10 90
6 0 10 9 10 20 0 13 7 20 18 20 20 0 71 50 92 91 17 31 36 49 51 49 7 0 4 9
-9 20 -36 34 -76 25 -136 -32 -26 -25 -32 -27 -34 -13 -2 9 1 22 7 28 6 6 11
37 11 70 0 73 12 87 79 87 76 0 160 54 161 103 0 9 5 17 10 17 6 0 10 11 10
24 0 14 5 28 10 31 6 3 10 13 10 21 0 18 18 37 43 47 16 6 17 9 3 22 -18 18
-107 20 -138 4 -32 -17 -68 -56 -68 -73 0 -8 -4 -18 -10 -21 -5 -3 -10 -17
-10 -30 0 -36 -53 -125 -75 -125 -4 0 -4 26 0 58 3 31 8 103 11 160 3 56 9
102 15 102 5 0 9 11 9 24 0 14 5 28 10 31 6 3 10 15 10 26 0 10 5 19 10 19 6
0 10 6 10 14 0 16 94 115 127 134 28 15 67 15 109 0 42 -15 77 2 95 44 9 23 9
34 -2 56 -19 37 -35 52 -53 52 -9 0 -16 5 -16 10 0 12 -67 13 -74 1z"/>
<path d="M10995 7610 c-3 -5 -13 -10 -21 -10 -18 0 -44 -24 -44 -39 0 -6 -6
-21 -12 -32 -10 -17 -10 -23 0 -26 6 -3 12 -12 12 -21 0 -29 80 -56 95 -32 8
14 71 13 98 -1 36 -19 127 -113 127 -131 0 -10 5 -18 10 -18 6 0 10 -9 10 -20
0 -11 4 -20 9 -20 17 0 23 -40 47 -312 3 -38 3 -68 -1 -68 -19 0 -75 98 -75
131 0 27 -19 58 -59 97 -31 29 -39 32 -96 32 -71 0 -88 -15 -52 -46 28 -24 47
-58 47 -83 0 -11 5 -23 10 -26 6 -3 10 -13 10 -21 0 -22 60 -84 82 -84 10 0
18 -4 18 -10 0 -5 30 -10 68 -12 l67 -3 7 -60 c4 -33 10 -77 14 -97 7 -44 0
-48 -28 -13 -39 49 -105 69 -134 40 -13 -13 -11 -18 16 -46 16 -18 30 -36 30
-41 0 -16 67 -78 84 -78 9 0 16 -8 16 -19 0 -11 6 -21 13 -24 15 -5 13 -146
-3 -191 -18 -46 -31 -79 -41 -98 -5 -10 -9 -25 -9 -33 0 -8 -4 -15 -10 -15 -5
0 -10 -5 -10 -10 0 -6 8 -5 20 2 11 7 20 21 20 30 0 10 5 18 10 18 6 0 10 9
10 20 0 11 5 20 10 20 6 0 10 10 10 23 0 13 4 27 9 32 5 6 12 30 15 55 11 95
19 126 37 141 11 9 19 22 19 28 0 6 16 28 35 47 20 20 38 49 42 65 3 16 9 29
14 29 5 0 9 7 9 16 0 9 9 18 20 21 24 6 25 10 6 29 -28 27 -77 14 -123 -32
-17 -17 -23 -34 -23 -69 0 -38 -3 -45 -19 -45 -20 0 -19 -7 -37 183 -3 34 -10
67 -16 74 -15 18 -15 396 0 401 7 2 12 17 12 33 0 16 5 29 10 29 6 0 10 9 10
20 0 11 4 20 8 20 5 0 15 12 23 28 16 32 59 72 77 72 6 0 12 5 12 10 0 6 9 10
20 10 10 0 30 5 44 11 19 9 35 8 70 -2 25 -7 46 -16 46 -20 0 -4 8 -9 18 -11
18 -5 62 -79 62 -106 0 -10 -11 -30 -24 -47 -19 -24 -31 -30 -63 -30 -39 0
-73 21 -73 45 0 7 -7 9 -16 6 -9 -3 -18 -6 -20 -6 -2 0 -4 -9 -4 -20 0 -11 -4
-20 -10 -20 -18 0 -11 -57 12 -99 12 -23 34 -47 50 -53 15 -7 28 -16 28 -20 0
-18 116 -8 156 13 40 22 84 75 84 103 0 8 5 18 10 21 6 3 10 28 10 55 0 46 -6
67 -34 130 -14 31 -95 110 -113 110 -7 0 -13 3 -13 8 0 12 -76 32 -120 32 -44
0 -120 -20 -120 -32 0 -5 -6 -8 -13 -8 -16 0 -107 -83 -107 -97 0 -5 -8 -18
-18 -29 -10 -10 -24 -38 -31 -61 -14 -42 -31 -58 -31 -28 0 24 -24 95 -32 95
-5 0 -8 9 -8 20 0 11 -4 20 -10 20 -5 0 -10 6 -10 13 0 15 -63 87 -76 87 -5 0
-20 9 -34 20 -14 11 -35 20 -47 20 -12 0 -25 5 -28 10 -3 6 -19 10 -35 10 -16
0 -32 -4 -35 -10z"/>
<path d="M1780 6870 c-8 -5 -25 -10 -37 -10 -50 0 -173 -89 -173 -125 0 -8 -3
-15 -8 -15 -11 0 -32 -75 -32 -115 0 -45 19 -82 59 -117 25 -23 40 -28 82 -28
28 0 56 6 63 13 43 43 49 112 11 145 -26 23 -95 31 -95 12 0 -5 -4 -10 -10
-10 -17 0 -11 88 8 112 30 38 59 63 89 77 15 7 36 17 45 22 24 12 168 11 168
-1 0 -5 10 -10 23 -10 13 0 33 -9 46 -21 12 -12 25 -19 28 -16 8 9 -44 57 -62
57 -8 0 -15 4 -15 9 0 18 -167 37 -190 21z"/>
<path d="M11600 6870 c-8 -5 -27 -10 -42 -10 -16 0 -28 -4 -28 -10 0 -5 -7
-10 -15 -10 -19 0 -70 -49 -61 -58 4 -3 10 -2 14 3 10 15 50 35 67 35 8 0 15
5 15 10 0 15 143 12 181 -4 49 -21 119 -74 119 -90 0 -8 4 -16 9 -18 14 -5 22
-72 10 -88 -8 -11 -12 -12 -16 -2 -2 6 -20 12 -39 12 -85 0 -114 -109 -44
-167 16 -13 120 -18 120 -5 0 4 10 12 22 17 36 16 56 64 57 133 1 35 -3 62 -9
62 -5 0 -10 7 -10 15 0 56 -129 165 -195 165 -13 0 -27 5 -30 10 -8 13 -105
13 -125 0z"/>
<path d="M1958 6250 c-38 -23 -66 -138 -38 -155 6 -3 10 -17 10 -31 0 -13 5
-24 10 -24 6 0 10 -7 10 -16 0 -19 52 -70 81 -79 10 -4 19 -11 19 -16 0 -5 9
-9 19 -9 11 0 23 -4 26 -10 3 -5 17 -10 30 -10 13 0 27 -4 30 -10 3 -5 17 -10
31 -10 13 0 24 5 24 10 0 6 -9 10 -20 10 -11 0 -20 5 -20 10 0 6 -6 10 -13 10
-7 0 -23 9 -35 20 -12 11 -26 20 -31 20 -6 0 -23 17 -38 38 -15 20 -30 39 -33
42 -3 3 -11 22 -19 43 -9 29 -10 42 -2 50 6 6 11 19 11 29 0 10 5 18 11 18 6
0 9 16 7 38 -3 31 -7 37 -28 39 -14 2 -33 -2 -42 -7z"/>
<path d="M11482 6248 c-17 -17 -15 -43 8 -80 21 -35 27 -88 10 -88 -5 0 -10
-7 -10 -15 0 -27 -43 -82 -82 -106 -21 -13 -38 -27 -38 -31 0 -5 -9 -8 -20 -8
-11 0 -20 -4 -20 -10 0 -5 -9 -10 -20 -10 -11 0 -20 -4 -20 -10 0 -5 11 -10
24 -10 14 0 28 5 31 10 3 6 17 10 30 10 13 0 27 5 30 10 3 6 15 10 26 10 10 0
19 5 19 10 0 6 6 10 13 10 19 0 80 60 96 95 7 17 17 38 22 47 13 26 11 105 -3
130 -26 46 -70 62 -96 36z"/>
<path d="M1815 6093 c-25 -26 -27 -33 -23 -90 4 -61 3 -63 -21 -63 -44 0 -149
-40 -176 -67 -15 -14 -14 -17 4 -34 11 -11 27 -19 36 -19 8 0 15 -4 15 -10 0
-5 13 -10 29 -10 17 0 33 -4 36 -10 3 -5 23 -10 44 -10 l37 0 -4 -62 c-3 -55
0 -66 21 -90 32 -37 49 -35 65 5 8 17 19 43 25 57 15 32 96 110 114 110 7 0
13 4 13 9 0 5 18 16 41 25 43 18 44 27 1 49 -55 27 -77 43 -120 86 -40 39 -56
67 -79 134 -8 24 -26 21 -58 -10z"/>
<path d="M11621 6073 c-11 -37 -30 -63 -79 -110 -35 -35 -70 -63 -78 -63 -8 0
-14 -4 -14 -10 0 -5 -9 -10 -19 -10 -31 0 -33 -27 -3 -43 58 -29 78 -44 128
-95 35 -35 56 -68 65 -97 15 -52 29 -56 67 -18 24 24 27 34 26 90 l0 63 38 0
c21 0 38 5 38 10 0 6 14 10 30 10 17 0 30 5 30 10 0 6 9 10 20 10 11 0 20 5
20 10 0 6 7 10 16 10 9 0 14 7 12 16 -5 26 -133 84 -184 84 -18 0 -20 6 -20
64 1 60 -1 66 -29 90 -16 14 -35 26 -40 26 -6 0 -17 -21 -24 -47z"/>
<path d="M2165 5830 c-3 -5 -17 -10 -30 -10 -13 0 -27 -4 -30 -10 -3 -5 -13
-10 -21 -10 -26 0 -114 -64 -126 -92 -7 -16 -16 -28 -20 -28 -5 0 -8 -11 -8
-24 0 -14 -4 -28 -10 -31 -5 -3 -10 -26 -10 -50 0 -24 5 -47 10 -50 6 -3 10
-13 10 -22 0 -23 30 -42 68 -43 29 0 32 3 32 30 0 17 -4 39 -10 50 -5 11 -15
29 -20 41 -18 33 8 88 71 151 32 32 76 65 98 75 23 10 41 21 41 25 0 12 -38
10 -45 -2z"/>
<path d="M11290 5830 c0 -5 9 -10 20 -10 11 0 20 -4 20 -10 0 -5 6 -10 13 -10
7 0 23 -9 35 -20 12 -11 25 -20 30 -20 12 0 62 -54 62 -68 0 -7 5 -12 10 -12
6 0 10 -9 10 -20 0 -11 5 -20 10 -20 17 0 11 -48 -11 -95 -27 -58 -23 -79 19
-83 48 -5 82 40 82 107 0 38 -6 60 -34 121 -11 26 -50 70 -62 70 -3 0 -18 8
-32 19 -27 18 -138 61 -160 61 -7 0 -12 -4 -12 -10z"/>
<path d="M2183 5535 c-7 -8 -13 -19 -13 -25 0 -5 -4 -10 -10 -10 -5 0 -10 -7
-10 -15 0 -8 -4 -23 -9 -33 -15 -29 -30 -94 -35 -156 -3 -42 -11 -64 -25 -77
-12 -11 -24 -31 -27 -44 -3 -14 -9 -25 -14 -25 -14 0 -50 -38 -50 -54 0 -9 -4
-16 -10 -16 -5 0 -10 -7 -10 -15 0 -19 -21 -57 -37 -68 -23 -14 -2 -37 33 -37
57 0 101 46 110 112 9 66 34 66 34 0 0 -26 4 -52 9 -58 5 -5 12 -36 15 -69 9
-95 25 -237 32 -279 6 -39 -7 -147 -27 -216 -27 -94 -83 -171 -144 -199 -17
-7 -38 -17 -47 -22 -24 -12 -85 -11 -93 1 -3 6 -15 10 -26 10 -10 0 -19 5 -19
10 0 6 -6 10 -14 10 -42 0 -69 128 -34 163 32 33 128 16 128 -22 0 -18 18 -13
40 11 21 23 29 108 10 108 -5 0 -10 7 -10 16 0 19 -48 64 -67 64 -7 0 -13 5
-13 10 0 14 -106 12 -133 -2 -41 -23 -104 -93 -112 -123 -15 -59 -4 -185 16
-185 5 0 9 -7 9 -16 0 -19 87 -104 107 -104 7 0 13 -3 13 -8 0 -4 18 -13 40
-20 48 -14 160 -16 160 -2 0 6 7 10 15 10 8 0 25 6 37 13 36 20 128 115 128
132 0 8 5 15 10 15 6 0 10 9 10 20 0 11 5 20 10 20 6 0 10 9 10 20 0 11 5 20
10 20 6 0 10 -9 10 -20 0 -11 5 -20 10 -20 6 0 10 -13 10 -30 0 -16 5 -30 10
-30 6 0 10 -9 10 -20 0 -11 4 -20 9 -20 5 0 12 -9 16 -19 11 -36 59 -78 125
-111 11 -5 29 -14 40 -20 58 -29 146 9 165 71 16 50 -55 116 -96 90 -24 -14
-84 -14 -112 0 -31 16 -127 118 -127 135 0 8 -4 14 -10 14 -5 0 -10 9 -10 20
0 11 -4 20 -10 20 -5 0 -10 14 -10 30 0 17 -4 30 -9 30 -6 0 -12 46 -15 103
-3 56 -8 128 -11 160 -4 31 -4 57 0 57 23 0 75 -90 75 -130 0 -17 5 -30 10
-30 6 0 10 -8 10 -17 0 -9 16 -32 36 -50 33 -30 42 -33 100 -33 73 0 87 13 50
45 -14 12 -26 30 -26 39 0 9 -4 16 -10 16 -5 0 -10 14 -10 30 0 17 -4 30 -10
30 -5 0 -10 9 -10 20 0 11 -4 20 -9 20 -5 0 -11 8 -13 18 -3 9 -18 23 -34 31
-16 7 -37 17 -46 22 -10 5 -40 9 -67 9 -27 0 -53 6 -59 13 -5 6 -12 39 -15 72
-2 33 -8 70 -12 83 -11 31 5 27 49 -13 42 -38 86 -46 119 -21 20 15 22 26 6
26 -13 0 -59 50 -59 64 0 15 -67 76 -84 76 -9 0 -16 8 -16 20 0 11 -4 20 -10
20 -6 0 -10 35 -10 84 0 47 5 88 10 91 6 3 10 19 10 36 0 16 5 29 10 29 6 0
10 7 10 15 0 8 9 30 20 50 11 20 20 38 20 40 0 10 -15 4 -27 -10z"/>
<path d="M11312 5508 c11 -24 24 -51 29 -60 5 -10 9 -26 9 -36 0 -10 5 -23 10
-28 16 -16 18 -176 3 -181 -7 -3 -13 -13 -13 -24 0 -10 -7 -19 -15 -19 -18 0
-85 -64 -85 -81 0 -6 -14 -24 -31 -40 -26 -24 -29 -32 -19 -44 14 -17 90 -21
90 -5 0 6 6 10 14 10 7 0 21 11 30 25 24 36 40 32 31 -7 -3 -18 -9 -60 -13
-93 l-7 -60 -45 -2 c-25 -2 -63 -8 -85 -15 -44 -13 -105 -67 -105 -91 0 -9 -4
-19 -10 -22 -5 -3 -10 -15 -10 -26 0 -23 -18 -58 -42 -80 -10 -9 -18 -24 -18
-33 0 -13 12 -16 65 -16 57 0 69 3 96 28 35 31 59 72 59 101 0 33 56 131 75
131 4 0 4 -30 1 -67 -4 -38 -10 -111 -14 -163 -5 -52 -12 -104 -16 -115 -17
-45 -52 -111 -64 -123 -6 -8 -17 -22 -22 -32 -6 -11 -30 -33 -54 -50 -34 -22
-56 -30 -90 -30 -25 0 -48 5 -51 10 -3 6 -15 10 -26 10 -10 0 -19 -4 -19 -10
0 -5 -6 -10 -14 -10 -20 0 -49 -61 -36 -74 5 -5 10 -16 10 -24 0 -18 25 -42
44 -42 9 0 16 -4 16 -10 0 -5 14 -10 30 -10 36 0 110 22 110 32 0 5 6 8 14 8
19 0 106 87 106 106 0 8 3 14 8 14 8 0 26 38 44 98 7 23 16 42 19 42 8 0 29
-47 29 -65 0 -8 5 -15 10 -15 6 0 10 -6 10 -14 0 -19 105 -126 124 -126 9 0
16 -4 16 -10 0 -5 9 -10 19 -10 11 0 23 -4 26 -10 3 -5 37 -10 75 -10 38 0 72
5 75 10 3 6 15 10 26 10 10 0 19 5 19 10 0 6 7 10 15 10 19 0 96 76 111 110
27 60 34 83 34 117 0 35 -18 102 -31 113 -3 3 -8 13 -12 23 -3 9 -28 31 -54
47 -36 23 -58 30 -97 30 -109 -1 -198 -113 -153 -193 19 -34 47 -50 47 -26 0
42 99 55 132 17 24 -28 34 -66 19 -81 -6 -6 -11 -19 -11 -28 0 -20 -59 -69
-83 -69 -9 0 -19 -4 -22 -10 -13 -21 -65 -12 -145 24 -31 13 -90 75 -90 93 0
7 -4 13 -10 13 -5 0 -10 9 -10 20 0 11 -4 20 -10 20 -5 0 -10 14 -10 30 0 17
-4 30 -9 30 -14 0 -20 178 -10 295 18 209 21 230 30 239 5 6 9 36 9 68 0 51 2
58 20 58 17 0 20 -7 20 -46 0 -39 5 -51 34 -80 26 -26 43 -34 69 -34 45 0 67
24 38 40 -12 6 -21 17 -21 25 0 8 -4 15 -10 15 -5 0 -10 7 -10 15 0 23 -21 57
-52 84 -16 13 -28 31 -28 39 0 8 -8 22 -19 31 -19 16 -27 48 -38 139 -3 28 -9
52 -14 52 -5 0 -9 14 -9 30 0 17 -4 30 -10 30 -5 0 -10 9 -10 20 0 11 -4 20
-10 20 -5 0 -10 9 -10 19 0 15 -18 31 -35 31 -2 0 5 -19 17 -42z"/>
<path d="M1585 5227 c-16 -18 -36 -43 -42 -55 -33 -57 -2 -173 63 -239 57 -57
149 -93 241 -93 34 0 65 5 68 10 3 6 15 10 26 10 33 0 119 63 105 77 -3 4 -14
-2 -23 -13 -10 -11 -34 -25 -54 -32 -42 -14 -185 -16 -194 -2 -3 6 -15 10 -25
10 -10 0 -20 3 -22 8 -1 4 -20 20 -40 35 -21 15 -38 35 -38 43 0 7 -4 14 -10
14 -5 0 -10 20 -10 44 l0 44 45 -6 c58 -6 95 23 95 75 0 68 -35 102 -105 102
-43 0 -54 -4 -80 -32z"/>
<path d="M11773 5243 c-13 -8 -23 -22 -23 -29 0 -8 -4 -14 -10 -14 -20 0 -11
-69 12 -96 20 -22 29 -25 73 -22 l50 3 -2 -34 c-1 -19 -7 -46 -15 -60 -16 -31
-58 -71 -75 -71 -7 0 -13 -4 -13 -10 0 -5 -9 -10 -19 -10 -11 0 -23 -4 -26
-10 -3 -5 -44 -10 -90 -10 -46 0 -87 5 -90 10 -3 6 -14 10 -24 10 -9 0 -27 9
-40 21 -12 12 -25 19 -28 16 -8 -9 44 -57 62 -57 8 0 15 -4 15 -10 0 -5 11
-10 24 -10 14 0 28 -4 31 -10 3 -5 34 -10 67 -10 133 0 246 65 297 170 29 60
28 139 -1 185 -13 19 -31 37 -40 41 -10 3 -18 10 -18 15 0 15 -93 9 -117 -8z"/>
<path d="M2490 4070 c0 -5 -6 -10 -14 -10 -17 0 -60 -65 -70 -105 -14 -54 -18
-137 -8 -159 5 -11 15 -39 22 -61 7 -22 21 -52 31 -67 21 -29 24 -48 9 -48 -5
0 -10 5 -10 10 0 6 -9 10 -20 10 -11 0 -20 5 -20 10 0 6 -13 10 -29 10 -17 0
-33 5 -36 10 -3 6 -37 10 -75 10 -38 0 -72 -4 -75 -10 -3 -5 -19 -10 -36 -10
-16 0 -29 -4 -29 -10 0 -5 -6 -10 -13 -10 -36 0 -127 -122 -127 -170 0 -12 -5
-31 -11 -42 -14 -26 5 -120 33 -160 10 -14 18 -29 18 -33 0 -12 53 -55 68 -55
6 0 12 -4 12 -10 0 -5 9 -10 19 -10 11 0 23 -4 26 -10 9 -14 71 -13 114 3 40
14 101 69 101 91 0 8 5 18 10 21 6 3 10 24 10 46 0 66 -37 120 -93 133 -37 9
-50 0 -35 -24 13 -21 -3 -63 -32 -87 -33 -27 -120 -2 -120 33 0 8 -4 14 -10
14 -6 0 -10 27 -10 60 0 33 4 60 10 60 6 0 10 7 10 15 0 27 71 85 105 85 8 0
15 5 15 10 0 23 135 8 192 -21 10 -5 25 -9 33 -9 8 0 15 -4 15 -10 0 -5 6 -10
13 -10 13 0 84 -57 127 -101 61 -63 120 -131 120 -138 0 -4 14 -22 30 -39 17
-18 30 -36 30 -40 0 -5 14 -23 30 -40 17 -18 30 -36 30 -40 0 -5 14 -23 30
-40 30 -31 40 -62 20 -62 -5 0 -10 4 -10 9 0 13 -86 51 -115 51 -14 0 -25 -4
-25 -10 0 -5 -7 -10 -16 -10 -20 0 -44 -24 -44 -44 0 -11 9 -16 30 -16 17 0
30 -3 30 -8 0 -13 77 -32 129 -32 28 0 52 -4 56 -9 3 -5 18 -9 34 -9 19 1 39
-10 61 -31 18 -17 39 -31 46 -31 8 0 14 -4 14 -8 0 -12 78 -52 101 -52 10 0
19 -4 19 -10 0 -5 14 -10 30 -10 17 0 30 5 30 10 0 6 -11 10 -24 10 -14 0 -28
5 -31 10 -3 6 -15 10 -26 10 -10 0 -19 5 -19 10 0 6 -9 10 -20 10 -11 0 -20 5
-20 10 0 6 -6 10 -13 10 -20 0 -107 83 -107 103 0 9 -4 17 -10 17 -5 0 -10 13
-10 29 0 17 5 33 10 36 6 3 10 19 10 35 0 16 -4 32 -10 35 -5 3 -10 33 -10 66
0 46 -3 59 -15 59 -35 0 -85 -67 -85 -115 0 -14 -3 -25 -6 -25 -9 0 -54 53
-54 63 0 4 -11 19 -25 33 -14 14 -25 29 -25 33 0 5 16 26 35 47 19 21 35 44
35 51 0 7 5 13 10 13 6 0 10 30 10 70 0 40 -4 70 -10 70 -5 0 -10 9 -10 20 0
11 -4 20 -10 20 -5 0 -10 9 -10 19 0 11 -5 23 -11 27 -7 4 -9 22 -6 44 4 34 3
37 -16 32 -31 -8 -80 -62 -95 -104 -11 -31 -11 -45 0 -75 7 -21 19 -44 26 -51
30 -32 58 -152 36 -152 -9 0 -54 53 -54 63 0 5 -12 21 -27 36 -16 14 -48 51
-73 81 -24 30 -48 57 -52 58 -5 2 -8 12 -8 23 0 10 -4 19 -10 19 -5 0 -10 11
-10 24 0 14 -4 27 -9 30 -5 3 -11 23 -14 43 -3 21 -9 50 -12 65 -16 60 46 178
93 178 18 0 42 42 42 72 0 10 -10 29 -22 43 -17 20 -31 25 -70 25 -26 0 -48
-4 -48 -10z"/>
<path d="M10893 4055 c-23 -24 -32 -75 -13 -75 6 0 10 -7 10 -15 0 -8 18 -23
39 -32 22 -10 45 -29 52 -43 6 -14 15 -33 20 -42 12 -24 11 -115 -1 -123 -5
-3 -10 -21 -10 -40 0 -19 -4 -37 -10 -40 -5 -3 -10 -15 -10 -26 0 -10 -4 -19
-10 -19 -5 0 -10 -9 -10 -20 0 -11 -4 -20 -10 -20 -5 0 -10 -6 -10 -12 0 -7
-32 -46 -70 -87 -39 -41 -70 -78 -70 -83 0 -10 -46 -58 -55 -58 -9 0 -6 59 4
78 5 9 16 32 23 50 7 17 16 32 20 32 5 0 8 9 8 19 0 11 5 23 10 26 6 3 10 22
10 41 0 19 -4 34 -10 34 -5 0 -10 7 -10 15 0 20 -65 85 -85 85 -11 0 -15 -11
-15 -40 0 -22 -4 -40 -10 -40 -5 0 -10 -9 -10 -20 0 -11 -4 -20 -10 -20 -5 0
-10 -9 -10 -20 0 -11 -4 -20 -10 -20 -6 0 -10 -27 -10 -62 0 -47 5 -69 20 -88
11 -14 20 -29 20 -33 0 -5 14 -22 31 -38 l30 -28 -30 -32 c-17 -18 -31 -36
-31 -41 0 -10 -45 -58 -55 -58 -3 0 -5 18 -5 40 0 22 -4 40 -10 40 -5 0 -10 6
-10 14 0 16 -42 46 -64 46 -10 0 -15 -20 -20 -77 -7 -102 -7 -93 0 -131 3 -18
1 -45 -6 -61 -14 -34 -94 -111 -115 -111 -8 0 -15 -4 -15 -10 0 -5 -9 -10 -20
-10 -11 0 -20 -4 -20 -10 0 -5 -9 -10 -20 -10 -11 0 -20 -4 -20 -10 0 -5 -13
-10 -30 -10 -16 0 -30 -4 -30 -10 0 -5 13 -10 29 -10 17 0 33 5 36 10 3 6 17
10 31 10 13 0 24 5 24 10 0 6 5 10 11 10 14 0 99 59 122 83 11 14 29 20 52 19
19 -1 35 3 35 8 0 6 27 10 60 10 33 0 70 5 83 12 48 24 57 28 77 28 12 0 20 7
20 16 0 20 -24 44 -44 44 -9 0 -16 5 -16 10 0 20 -57 9 -103 -20 -26 -16 -50
-30 -52 -30 -15 0 -1 31 25 58 17 18 30 36 30 40 0 5 14 23 30 40 17 18 30 36
30 40 0 5 14 23 30 40 17 18 30 36 30 42 0 13 199 212 230 229 129 74 219 89
299 50 77 -37 111 -85 111 -157 0 -99 -57 -146 -135 -110 -24 11 -28 21 -29
83 -1 28 -4 30 -34 27 -35 -2 -82 -40 -82 -67 0 -8 -4 -15 -10 -15 -5 0 -10
-18 -10 -39 0 -22 5 -43 10 -46 6 -3 10 -15 10 -27 0 -24 66 -88 91 -88 10 0
21 -4 24 -10 3 -5 28 -10 56 -10 27 0 49 5 49 10 0 6 7 10 15 10 34 0 125 78
125 107 0 7 5 13 10 13 6 0 10 11 10 24 0 14 5 28 10 31 23 14 10 107 -27 192
-17 40 -86 113 -107 113 -9 0 -16 5 -16 10 0 6 -10 10 -23 10 -13 0 -28 5 -34
11 -18 18 -223 -3 -223 -22 0 -5 -9 -9 -19 -9 -11 0 -21 -6 -24 -12 -2 -7 -7
-10 -11 -7 -8 8 14 59 26 59 4 0 8 9 8 19 0 11 5 23 10 26 6 3 10 17 10 30 0
13 5 27 10 30 6 3 10 39 10 80 0 41 -4 77 -10 80 -5 3 -10 17 -10 31 0 13 -4
24 -10 24 -5 0 -10 7 -10 14 0 8 -15 26 -33 40 -46 35 -112 35 -144 1z"/>
<path d="M1883 4063 c-21 -8 -15 -60 9 -83 19 -17 35 -20 114 -20 51 0 96 4
99 10 3 6 19 10 36 10 16 0 37 4 47 9 9 5 26 13 37 17 19 7 18 8 -5 12 -13 2
-26 -1 -28 -7 -2 -7 -41 -11 -109 -11 -107 0 -133 8 -133 43 0 22 -36 33 -67
20z"/>
<path d="M11563 4063 c-7 -2 -13 -11 -13 -20 0 -35 -26 -43 -134 -43 -64 0
-106 4 -106 10 0 6 -12 10 -27 10 -36 0 -19 -14 37 -29 25 -7 59 -17 76 -22
17 -5 69 -9 116 -9 96 0 118 13 118 67 0 37 -28 52 -67 36z"/>
<path d="M11245 3970 c-3 -6 0 -10 7 -10 8 0 20 -9 28 -20 8 -11 20 -20 26
-20 15 0 117 -98 132 -127 8 -14 9 -24 2 -28 -15 -10 -12 -55 6 -72 13 -13 19
-14 40 -3 24 13 29 31 25 79 -2 26 -104 131 -127 131 -8 0 -14 4 -14 9 0 5 -8
11 -17 14 -10 4 -37 17 -60 31 -24 15 -45 21 -48 16z"/>
<path d="M2193 3946 c-13 -6 -23 -14 -23 -18 0 -5 -9 -8 -20 -8 -11 0 -20 -4
-20 -8 0 -5 -12 -15 -27 -23 -15 -8 -47 -33 -70 -56 -38 -37 -43 -48 -43 -86
0 -37 4 -46 26 -56 23 -10 29 -9 45 10 13 15 17 29 12 43 -14 43 -3 68 53 122
31 30 61 54 66 54 10 0 38 25 38 34 0 8 -11 6 -37 -8z"/>
<path d="M2035 3918 c-22 -5 -65 -13 -95 -19 -30 -5 -74 -12 -96 -17 -59 -10
-94 -39 -94 -78 0 -36 13 -44 71 -44 30 0 47 7 71 30 17 17 35 30 41 30 5 0
17 8 26 18 15 15 25 22 86 56 24 14 49 36 38 35 -4 -1 -26 -6 -48 -11z"/>
<path d="M11424 3914 c8 -8 20 -14 26 -14 6 0 20 -9 32 -20 12 -11 28 -20 35
-20 7 0 13 -4 13 -8 0 -4 12 -15 28 -24 15 -9 41 -28 57 -42 23 -20 41 -26 77
-26 51 0 70 16 60 54 -14 51 -46 66 -182 82 -25 3 -54 9 -65 14 -11 4 -37 11
-58 14 -32 4 -35 3 -23 -10z"/>
<path d="M2619 3141 c-71 -35 -169 -152 -169 -201 0 -11 -4 -20 -10 -20 -12 0
-13 -114 -1 -138 5 -9 15 -30 22 -47 18 -38 74 -95 94 -95 8 0 15 -4 15 -10 0
-5 20 -10 43 -10 35 0 51 7 82 33 36 31 39 38 39 84 0 52 -10 69 -52 92 -19
10 -30 10 -58 -4 -19 -9 -40 -28 -46 -41 -16 -34 -36 -27 -64 24 -25 44 -32
116 -14 127 6 3 10 16 10 28 0 12 9 33 20 47 11 14 20 29 20 33 0 13 58 65 81
72 10 4 19 11 19 16 0 5 14 9 30 9 17 0 30 5 30 10 0 16 -52 11 -91 -9z"/>
<path d="M10790 3150 c0 -5 14 -10 30 -10 17 0 30 -4 30 -10 0 -5 6 -10 14
-10 19 0 106 -87 106 -106 0 -8 3 -14 8 -14 11 0 32 -76 32 -119 0 -49 -37
-121 -62 -121 -10 0 -18 7 -18 16 0 19 -24 44 -42 44 -8 0 -19 5 -26 12 -13
13 -57 -5 -79 -32 -19 -23 -16 -106 5 -131 38 -46 108 -62 155 -36 36 20 107
98 107 118 0 10 5 21 10 24 23 14 2 205 -22 205 -5 0 -8 7 -8 16 0 21 -96 116
-143 143 -39 22 -97 28 -97 11z"/>
<path d="M3108 2779 c-13 -7 -18 -22 -18 -51 0 -35 6 -47 44 -84 24 -24 51
-44 60 -44 9 0 16 -4 16 -10 0 -6 37 -10 90 -10 53 0 90 4 90 10 0 6 5 10 12
10 18 0 108 44 108 53 0 11 -48 9 -55 -3 -3 -6 -48 -10 -100 -10 l-94 0 -40
38 c-22 20 -43 51 -47 67 -10 44 -32 54 -66 34z"/>
<path d="M10343 2783 c-7 -2 -13 -18 -13 -34 0 -16 -3 -29 -8 -29 -4 0 -12
-10 -17 -22 -6 -13 -20 -27 -32 -33 -13 -5 -23 -13 -23 -17 0 -11 -198 -10
-204 1 -3 5 -19 11 -35 13 -21 3 -28 1 -24 -9 3 -7 14 -13 24 -13 10 0 19 -3
19 -8 0 -4 15 -13 33 -20 17 -7 40 -18 49 -23 10 -5 52 -9 93 -9 86 0 114 12
176 74 24 23 29 37 29 76 0 41 -3 49 -22 54 -26 6 -28 6 -45 -1z"/>
<path d="M3538 2610 c-7 -16 -16 -30 -20 -30 -5 0 -8 -9 -8 -20 0 -11 -4 -20
-10 -20 -5 0 -10 -11 -10 -24 0 -14 -4 -28 -10 -31 -5 -3 -10 -42 -10 -86 0
-46 4 -79 10 -79 6 0 10 -7 10 -16 0 -9 20 -36 44 -60 38 -39 49 -44 88 -44
37 0 47 4 58 24 11 21 10 27 -3 40 -9 9 -25 16 -37 16 -11 0 -41 20 -65 45
l-45 44 0 90 c0 49 5 93 10 96 6 3 10 19 10 36 0 16 5 29 10 29 6 0 10 5 10
10 0 21 -19 9 -32 -20z"/>
<path d="M9946 2608 c4 -18 11 -37 15 -42 11 -12 12 -206 1 -206 -4 0 -12 -10
-17 -22 -6 -13 -20 -27 -32 -33 -13 -5 -23 -13 -23 -17 0 -5 -13 -8 -29 -8
-32 0 -44 -19 -35 -56 5 -21 12 -24 52 -24 48 0 112 37 112 66 0 7 3 14 8 14
27 0 46 174 23 218 -5 9 -19 40 -32 67 -33 69 -51 87 -43 43z"/>
<path d="M3102 2570 c-6 -11 -12 -24 -12 -30 0 -20 43 -100 54 -100 6 0 19 -7
30 -15 17 -13 17 -14 -2 -35 -11 -12 -30 -43 -43 -68 -12 -26 -26 -55 -31 -64
-15 -32 -10 -58 12 -58 28 0 100 23 100 32 0 5 6 8 14 8 7 0 28 14 45 31 31
29 33 30 46 12 8 -10 15 -23 15 -29 0 -14 77 -54 103 -54 12 0 30 7 41 15 17
13 17 14 -3 36 -12 13 -21 31 -21 40 0 10 -4 21 -10 24 -5 3 -10 37 -10 75 0
38 5 72 10 75 6 3 10 22 10 41 0 19 5 34 10 34 6 0 10 9 10 21 0 16 -4 19 -17
14 -10 -5 -33 -10 -50 -13 -18 -2 -33 -8 -33 -13 0 -5 -32 -9 -72 -9 -72 0
-132 14 -156 38 -18 17 -25 15 -40 -8z"/>
<path d="M10356 2575 c-8 -8 -21 -15 -30 -15 -8 0 -18 -4 -21 -10 -3 -5 -42
-10 -85 -10 -43 0 -82 5 -85 10 -3 6 -17 10 -31 10 -13 0 -33 5 -44 12 -25 16
-38 3 -22 -22 7 -11 12 -31 12 -44 0 -14 5 -28 10 -31 6 -3 10 -42 10 -85 0
-43 -4 -82 -10 -85 -5 -3 -10 -15 -10 -26 0 -10 -4 -19 -9 -19 -19 0 -22 -35
-5 -47 21 -15 74 -17 74 -3 0 6 7 10 16 10 15 0 54 35 54 49 0 3 4 13 10 21 7
12 12 11 27 -6 16 -18 39 -32 125 -75 10 -5 29 -9 43 -9 21 0 25 5 25 29 0 17
-4 33 -10 36 -5 3 -10 17 -10 31 0 13 -4 24 -10 24 -5 0 -10 6 -10 14 0 7 -14
28 -31 46 -25 25 -28 34 -18 41 8 5 17 9 20 9 14 0 49 39 49 54 0 9 5 16 10
16 14 0 12 64 -2 78 -16 16 -23 15 -42 -3z"/>
<path d="M3730 2350 c0 -16 5 -30 10 -30 6 0 10 -9 10 -19 0 -21 38 -93 52
-99 4 -2 8 -9 8 -16 0 -7 16 -29 35 -50 26 -28 33 -44 29 -61 -3 -13 -1 -26 5
-29 6 -4 11 -34 11 -66 0 -32 5 -62 10 -65 6 -3 10 -17 10 -31 0 -13 5 -24 10
-24 6 0 10 -13 10 -30 0 -21 5 -30 16 -30 29 0 64 51 64 93 0 27 -39 107 -52
107 -4 0 -8 5 -8 10 0 20 31 10 62 -20 17 -16 35 -30 40 -30 4 0 22 -13 40
-30 17 -16 35 -30 40 -30 4 0 22 -13 40 -30 17 -16 35 -30 39 -30 7 0 75 -59
138 -120 44 -43 101 -114 101 -127 0 -7 5 -13 10 -13 6 0 10 -9 10 -20 0 -11
5 -20 10 -20 6 0 10 -13 10 -30 0 -16 5 -30 10 -30 15 0 12 -123 -4 -162 -17
-39 -60 -89 -93 -106 -25 -14 -133 -16 -133 -3 0 5 -9 11 -20 14 -11 3 -20 12
-20 21 0 9 -4 16 -10 16 -15 0 -11 52 5 75 22 28 66 44 87 31 30 -18 44 7 25
46 -26 54 -76 88 -131 88 -19 0 -38 -4 -41 -10 -3 -5 -14 -10 -24 -10 -26 0
-81 -56 -88 -91 -3 -16 -10 -32 -14 -35 -5 -3 -9 -16 -9 -30 0 -31 23 -104 32
-104 5 0 8 -6 8 -12 0 -32 99 -108 139 -108 9 0 22 -5 28 -11 15 -15 173 5
173 22 0 5 7 9 15 9 19 0 96 76 111 110 29 64 34 86 34 150 0 38 -5 82 -11 97
-7 15 -18 42 -25 60 -8 17 -14 34 -14 37 0 4 26 -6 58 -22 31 -16 73 -35 93
-41 44 -14 156 -15 164 -1 3 6 17 10 31 10 13 0 24 5 24 10 0 6 6 10 14 10 7
0 25 12 40 26 21 22 26 36 26 79 0 42 -4 55 -25 73 -26 22 -75 30 -75 12 0 -5
-6 -10 -13 -10 -7 0 -21 -17 -30 -38 -10 -22 -29 -44 -44 -51 -16 -8 -36 -17
-45 -22 -23 -12 -84 -11 -122 1 -17 5 -52 15 -78 22 -27 7 -48 16 -48 20 0 4
-9 8 -19 8 -11 0 -21 3 -23 8 -1 4 -28 27 -58 52 -30 24 -62 52 -70 60 -8 9
-31 27 -50 40 -40 28 -60 46 -60 54 0 3 18 6 40 6 22 0 40 -4 40 -10 0 -5 10
-10 23 -10 13 0 33 -9 45 -20 12 -11 28 -20 36 -20 8 0 18 -4 21 -10 9 -14 61
-12 87 3 34 18 84 70 91 92 6 18 3 20 -38 17 -28 -3 -45 0 -45 7 0 6 -9 11
-20 11 -11 0 -20 5 -20 10 0 6 -9 10 -20 10 -11 0 -20 5 -20 10 0 6 -27 10
-61 10 -64 0 -91 -12 -155 -72 -29 -27 -31 -28 -50 -10 -10 10 -35 29 -54 42
-72 50 -75 60 -20 60 22 0 40 5 40 10 0 6 6 10 13 10 20 0 47 33 47 58 0 20
-5 22 -55 22 -30 0 -66 5 -80 12 -21 9 -31 9 -46 0 -24 -15 -64 -15 -92 -1
-29 15 -94 85 -102 110 -4 10 -11 19 -16 19 -5 0 -9 9 -9 20 0 11 -4 20 -8 20
-5 0 -15 23 -22 50 -15 56 -30 66 -30 20z"/>
<path d="M9750 2350 c0 -16 -4 -30 -10 -30 -5 0 -10 -9 -10 -20 0 -11 -4 -20
-10 -20 -5 0 -10 -9 -10 -20 0 -11 -4 -20 -10 -20 -5 0 -10 -7 -10 -15 0 -19
-68 -93 -102 -111 -33 -17 -80 -18 -96 -2 -9 9 -18 9 -37 0 -14 -7 -53 -12
-85 -12 -51 0 -60 -3 -60 -17 1 -38 61 -83 110 -83 16 0 30 -3 30 -6 0 -10
-73 -74 -83 -74 -5 0 -18 -9 -28 -21 l-18 -21 -35 35 c-19 20 -44 38 -56 42
-11 3 -20 11 -20 16 0 5 -31 9 -70 9 -40 0 -70 -4 -70 -10 0 -5 -9 -10 -20
-10 -11 0 -20 -4 -20 -10 0 -5 -9 -10 -20 -10 -11 0 -20 -4 -20 -10 0 -5 -18
-10 -40 -10 -29 0 -40 -4 -40 -15 0 -20 65 -85 85 -85 8 0 15 -4 15 -10 0 -5
15 -10 34 -10 19 0 38 5 41 10 3 6 15 10 26 10 10 0 19 3 19 8 0 4 15 13 33
20 17 7 40 18 49 23 19 10 78 13 78 4 0 -9 -48 -55 -58 -55 -5 0 -42 -31 -83
-70 -41 -38 -80 -70 -86 -70 -7 0 -13 -4 -13 -10 0 -5 -9 -10 -20 -10 -11 0
-20 -4 -20 -10 0 -5 -9 -10 -19 -10 -11 0 -23 -4 -26 -10 -3 -5 -21 -10 -40
-10 -19 0 -37 -4 -40 -10 -3 -5 -31 -10 -61 -10 -30 0 -54 5 -54 10 0 6 -7 10
-15 10 -32 0 -62 23 -78 61 -9 21 -24 39 -32 39 -8 0 -15 5 -15 10 0 20 -51
10 -75 -15 -35 -34 -34 -96 1 -142 14 -18 32 -33 40 -33 7 0 14 -4 14 -10 0
-5 14 -10 30 -10 17 0 30 -4 30 -10 0 -24 154 -8 212 21 10 5 25 9 33 9 8 0
15 4 15 8 0 12 51 34 59 26 3 -4 0 -9 -6 -11 -7 -3 -13 -13 -13 -24 0 -10 -4
-19 -9 -19 -19 0 -39 -196 -22 -213 6 -6 11 -24 11 -39 0 -15 5 -28 10 -28 6
0 10 -7 10 -16 0 -21 73 -90 113 -107 85 -37 169 -49 182 -27 3 6 19 10 36 10
16 0 29 5 29 10 0 6 6 10 13 10 29 0 107 91 107 125 0 8 5 15 10 15 15 0 12
83 -4 122 -30 71 -99 118 -174 118 -18 0 -32 -4 -32 -10 0 -5 -7 -10 -15 -10
-24 0 -62 -43 -69 -77 -8 -36 5 -49 33 -33 13 7 22 7 26 0 3 -5 14 -10 24 -10
19 0 41 -38 41 -70 0 -32 -20 -64 -47 -77 -35 -17 -117 -17 -145 0 -38 21 -79
69 -85 99 -3 15 -9 28 -14 28 -13 0 -11 97 2 139 12 37 35 87 60 131 17 31
216 230 229 230 6 0 24 14 42 30 17 17 35 30 40 30 4 0 22 14 40 30 17 17 35
30 40 30 4 0 22 14 40 30 27 26 58 40 58 25 0 -2 -13 -26 -30 -52 -29 -46 -40
-103 -20 -103 6 0 10 -7 10 -16 0 -20 24 -44 44 -44 9 0 16 8 16 20 0 11 5 29
10 40 6 11 15 29 20 40 6 11 10 47 10 80 0 33 4 60 10 60 6 0 10 16 10 36 0
26 8 43 28 63 29 28 60 74 69 104 3 9 9 17 14 17 5 0 9 11 9 24 0 14 5 28 10
31 6 3 10 19 10 36 0 16 -4 29 -10 29 -5 0 -10 -13 -10 -30z"/>
<path d="M3555 1816 c-43 -48 -61 -115 -35 -131 6 -3 10 -13 10 -21 0 -22 62
-80 111 -103 27 -13 63 -21 96 -21 55 0 133 19 133 32 0 5 8 8 18 8 21 0 142
121 142 143 0 8 4 17 9 19 4 2 11 26 15 53 7 49 7 50 -9 21 -8 -15 -15 -35
-15 -42 0 -8 -4 -14 -10 -14 -5 0 -10 -7 -10 -15 0 -20 -85 -105 -105 -105 -8
0 -15 -3 -15 -8 0 -11 -75 -32 -114 -32 -56 0 -126 37 -126 67 0 7 7 13 16 13
17 0 32 14 52 48 18 32 15 54 -12 85 -20 23 -30 27 -77 26 -43 0 -58 -5 -74
-23z"/>
<path d="M9810 1827 c-27 -22 -45 -66 -32 -79 7 -7 12 -20 12 -29 0 -10 13
-23 30 -31 17 -7 30 -20 30 -29 0 -22 -75 -59 -121 -59 -43 0 -119 21 -119 32
0 5 -6 8 -14 8 -19 0 -106 87 -106 106 0 8 -4 14 -10 14 -5 0 -10 14 -10 30 0
17 -4 30 -10 30 -17 0 -11 -58 11 -97 24 -44 124 -143 145 -143 8 0 14 -3 14
-8 0 -24 191 -45 205 -22 3 6 14 10 24 10 20 0 98 71 119 107 25 47 9 117 -37
156 -25 20 -108 23 -131 4z"/>
<path d="M5075 1690 c-3 -5 -13 -10 -21 -10 -20 0 -44 -24 -44 -44 0 -8 -4
-18 -10 -21 -5 -3 -10 -19 -10 -35 0 -16 5 -32 10 -35 6 -3 10 -16 10 -28 0
-12 9 -33 20 -47 11 -14 20 -29 20 -34 0 -13 72 -76 87 -76 7 0 13 -4 13 -10
0 -5 9 -10 20 -10 11 0 20 -3 20 -8 0 -8 71 -32 95 -32 28 0 16 -16 -22 -29
-21 -8 -50 -22 -65 -32 -14 -11 -29 -19 -33 -19 -12 0 -95 -93 -95 -107 0 -7
-3 -13 -8 -13 -12 0 -32 -76 -32 -120 0 -44 20 -120 32 -120 5 0 8 -6 8 -13 0
-18 79 -99 110 -113 85 -38 128 -43 190 -21 99 35 140 90 140 188 0 32 -3 59
-8 59 -4 0 -13 13 -20 28 -6 16 -30 38 -53 50 -42 23 -99 30 -99 12 0 -5 -9
-10 -19 -10 -10 0 -22 -7 -25 -16 -8 -21 -8 -24 5 -24 19 0 40 -29 46 -64 4
-28 1 -39 -20 -60 -29 -29 -79 -45 -85 -28 -2 7 -10 12 -18 12 -22 0 -64 30
-64 46 0 8 -4 14 -8 14 -4 0 -14 21 -21 46 -10 35 -11 51 -2 70 6 14 11 34 11
44 0 11 5 20 10 20 6 0 10 6 10 13 0 17 40 60 73 76 15 8 27 18 27 23 0 4 9 8
20 8 11 0 20 5 20 10 0 6 14 10 30 10 17 0 30 4 30 9 0 14 188 20 305 10 212
-18 230 -21 240 -30 5 -5 33 -9 62 -9 46 0 53 -3 53 -20 0 -17 -7 -20 -45 -20
-35 0 -52 -6 -69 -23 -46 -46 -59 -95 -32 -123 19 -19 23 -18 29 6 3 11 12 20
21 20 9 0 16 4 16 9 0 5 13 11 29 14 16 4 45 22 65 42 19 19 41 35 47 35 6 0
19 8 28 19 17 19 48 27 139 38 29 3 55 9 58 14 3 5 16 9 30 9 13 0 24 5 24 10
0 6 9 10 20 10 11 0 20 5 20 10 0 6 8 10 18 10 9 0 23 9 30 20 7 12 8 20 2 20
-5 0 -10 -4 -10 -10 0 -5 -7 -10 -15 -10 -8 0 -23 -4 -33 -9 -19 -10 -52 -23
-98 -41 -45 -16 -186 -18 -191 -2 -3 6 -13 12 -24 12 -12 0 -19 7 -19 18 0 18
-61 82 -78 82 -5 0 -23 14 -41 30 -28 27 -33 29 -46 16 -29 -29 -10 -95 39
-131 14 -11 26 -23 26 -27 0 -12 -58 -10 -65 2 -3 6 -30 10 -59 10 -28 0 -57
5 -64 12 -7 7 -12 35 -12 64 0 58 -33 134 -62 142 -10 2 -18 8 -18 13 0 5 -9
9 -19 9 -11 0 -23 5 -26 10 -3 6 -17 10 -31 10 -13 0 -24 5 -24 10 0 6 -7 10
-16 10 -18 0 -44 24 -44 40 0 7 -7 9 -16 6 -9 -3 -18 -6 -20 -6 -2 0 -4 -28
-4 -63 0 -58 3 -66 33 -98 38 -40 69 -59 97 -59 36 0 130 -55 130 -75 0 -4
-30 -4 -67 -1 -38 4 -108 9 -158 12 -49 3 -94 10 -99 15 -6 5 -20 9 -33 9 -13
0 -23 5 -23 10 0 6 -9 10 -20 10 -11 0 -20 5 -20 10 0 6 -7 10 -16 10 -17 0
-111 91 -131 127 -15 27 -17 89 -3 98 25 15 -2 95 -32 95 -10 0 -18 5 -18 10
0 6 -6 10 -14 10 -8 0 -18 -4 -21 -10z"/>
<path d="M8390 1691 c0 -5 -9 -11 -20 -14 -11 -3 -20 -12 -20 -21 0 -9 -4 -16
-10 -16 -5 0 -10 -9 -10 -19 0 -11 5 -23 10 -26 6 -3 10 -26 10 -51 0 -34 -8
-56 -30 -90 -17 -24 -39 -48 -50 -54 -10 -5 -24 -16 -32 -22 -12 -12 -78 -47
-123 -64 -11 -4 -63 -11 -115 -16 -52 -4 -125 -10 -162 -14 -38 -3 -68 -3 -68
1 0 19 98 75 131 75 29 0 70 24 102 59 24 27 27 39 27 96 0 53 -3 65 -16 65
-9 0 -24 -8 -33 -17 -22 -25 -57 -43 -80 -43 -11 0 -23 -4 -26 -10 -3 -5 -13
-10 -22 -10 -24 0 -78 -61 -91 -105 -7 -22 -13 -60 -15 -85 l-2 -45 -60 -7
c-33 -4 -75 -10 -92 -13 -40 -9 -44 7 -8 31 14 9 25 23 25 30 0 8 5 14 10 14
16 0 12 76 -5 90 -12 10 -20 7 -44 -19 -16 -17 -34 -31 -40 -31 -17 0 -81 -67
-81 -85 0 -8 -9 -15 -19 -15 -11 0 -21 -6 -24 -12 -5 -16 -165 -14 -181 2 -5
5 -20 10 -33 10 -13 0 -23 5 -23 10 0 6 -9 10 -20 10 -11 0 -36 9 -56 20 -23
13 -34 16 -32 8 2 -7 14 -17 26 -23 12 -5 22 -13 22 -17 0 -5 9 -8 20 -8 11 0
20 -4 20 -10 0 -5 14 -10 30 -10 17 0 30 -4 30 -9 0 -5 24 -11 53 -14 82 -8
119 -18 141 -38 11 -11 25 -19 31 -19 7 0 23 -12 36 -27 27 -32 61 -53 84 -53
8 0 15 -4 15 -10 0 -5 8 -10 19 -10 11 0 21 -9 24 -22 9 -33 37 -4 37 39 0 26
-8 43 -34 69 -29 29 -41 34 -80 34 -39 0 -46 3 -46 19 0 20 -7 19 183 37 34 3
67 10 74 16 18 15 390 15 405 0 7 -7 22 -12 35 -12 13 0 23 -4 23 -10 0 -5 9
-10 20 -10 11 0 20 -4 20 -10 0 -5 6 -10 13 -10 19 0 80 -60 96 -95 7 -16 17
-38 22 -47 12 -24 11 -98 -1 -98 -5 0 -10 -7 -10 -15 0 -46 -95 -114 -138
-101 -41 14 -62 42 -62 85 0 43 11 62 43 74 16 6 16 9 5 19 -42 39 -91 48
-131 26 -65 -37 -97 -87 -97 -154 0 -59 53 -154 87 -154 7 0 13 -3 13 -8 0
-11 75 -32 114 -32 33 0 56 7 116 34 34 15 110 92 110 111 0 8 5 15 10 15 6 0
10 9 10 19 0 11 5 23 10 26 6 3 10 37 10 75 0 38 -4 72 -10 75 -5 3 -10 15
-10 26 0 10 -4 19 -10 19 -5 0 -10 7 -10 16 0 19 -107 124 -126 124 -8 0 -14
5 -14 10 0 6 -6 10 -13 10 -16 0 -67 23 -67 30 0 3 19 11 43 18 59 18 97 36
97 44 0 5 6 8 14 8 19 0 106 87 106 106 0 8 3 14 8 14 10 0 32 74 32 110 0 16
-4 30 -10 30 -5 0 -10 7 -10 16 0 20 -24 44 -44 44 -9 0 -16 5 -16 10 0 6 -9
10 -20 10 -11 0 -20 -4 -20 -9z"/>
<path d="M4798 1352 c-16 -9 -28 -20 -28 -24 0 -5 -9 -8 -20 -8 -11 0 -20 -4
-20 -10 0 -5 -9 -10 -20 -10 -11 0 -20 5 -20 10 0 14 -54 12 -68 -2 -30 -30
-1 -68 52 -68 20 0 36 5 36 10 0 6 6 10 14 10 7 0 33 18 56 41 23 22 44 38 47
36 9 -9 -22 -51 -80 -109 -59 -58 -59 -58 -106 -52 -53 7 -66 -6 -55 -52 6
-24 22 -30 74 -25 25 3 130 100 130 121 0 6 9 20 20 32 11 12 20 28 20 35 0 7
5 13 10 13 6 0 10 9 10 19 0 11 6 21 13 24 7 2 8 8 3 13 -5 5 -11 4 -13 -3 -6
-17 -21 -16 -25 1 -3 13 -7 12 -30 -2z"/>
<path d="M8638 1365 c-4 -4 5 -26 18 -48 14 -23 27 -50 31 -59 3 -10 9 -18 14
-18 5 0 9 -6 9 -14 0 -23 105 -125 131 -127 48 -4 66 1 79 25 11 21 10 27 -3
40 -17 18 -62 21 -72 6 -4 -7 -14 -6 -28 2 -27 14 -127 117 -127 131 0 5 -8
17 -18 26 -11 9 -21 22 -23 29 -2 7 -7 10 -11 7z"/>
<path d="M8590 1326 c0 -14 5 -26 10 -26 6 0 10 -43 10 -108 0 -111 -7 -132
-41 -132 -21 0 -33 -31 -24 -60 5 -15 15 -20 39 -20 55 0 66 23 66 133 0 53
-4 99 -10 102 -5 3 -10 21 -10 40 0 19 -4 37 -10 40 -5 3 -10 15 -10 25 0 10
-4 22 -10 25 -6 4 -10 -5 -10 -19z"/>
<path d="M4890 1310 c0 -16 -4 -30 -10 -30 -5 0 -10 -18 -10 -40 0 -22 -4 -40
-10 -40 -18 0 -12 -167 6 -195 26 -39 104 -28 104 15 0 15 -25 40 -40 40 -30
0 -40 29 -40 119 0 49 5 93 10 96 6 3 10 19 10 36 0 16 -4 29 -10 29 -5 0 -10
-13 -10 -30z"/>
<path d="M6710 1300 c0 -11 -4 -20 -10 -20 -5 0 -10 -9 -10 -20 0 -11 -3 -20
-8 -20 -4 0 -18 -17 -31 -38 -24 -39 -79 -82 -106 -82 -8 0 -15 -4 -15 -10 0
-17 -53 -11 -88 10 -37 23 -63 25 -80 8 -26 -26 -3 -88 32 -88 9 0 16 -4 16
-10 0 -5 20 -10 45 -10 41 0 63 6 125 34 31 13 90 75 90 93 0 7 5 13 10 13 6
0 10 9 10 20 0 11 5 20 10 20 6 0 10 14 10 30 0 17 5 30 10 30 6 0 10 14 10
30 0 17 -4 30 -10 30 -5 0 -10 -9 -10 -20z"/>
<path d="M6770 1301 c0 -11 5 -23 10 -26 6 -3 10 -15 10 -26 0 -32 50 -127 85
-163 34 -35 112 -66 166 -66 67 0 112 34 107 82 -4 42 -25 46 -83 19 -49 -23
-80 -27 -90 -11 -3 6 -15 10 -26 10 -10 0 -19 5 -19 10 0 6 -6 10 -14 10 -8 0
-25 13 -38 29 -60 76 -68 87 -68 99 0 6 -4 12 -10 12 -5 0 -10 9 -10 20 0 11
-4 20 -10 20 -5 0 -10 -9 -10 -19z"/>
<path d="M6743 1203 c-7 -2 -13 -13 -13 -24 0 -10 -4 -19 -10 -19 -5 0 -10 -7
-10 -15 0 -8 -29 -43 -63 -78 -47 -47 -76 -68 -110 -78 -26 -7 -47 -18 -47
-24 0 -5 11 -23 25 -39 23 -27 31 -30 90 -30 58 0 65 -2 65 -20 0 -51 58 -179
84 -184 9 -2 16 3 16 12 0 9 5 16 10 16 6 0 10 9 10 20 0 11 5 20 10 20 6 0
10 11 10 24 0 14 5 28 10 31 6 3 10 23 10 44 l0 39 63 -2 c56 -1 66 2 90 26
32 32 35 58 8 58 -11 0 -23 5 -26 10 -3 6 -14 10 -24 10 -18 0 -131 100 -131
117 0 4 -9 19 -20 33 -11 14 -20 33 -20 43 0 17 -5 19 -27 10z"/>
<path d="M4803 1185 c-7 -8 -13 -21 -13 -30 0 -8 -4 -15 -10 -15 -5 0 -10 -6
-10 -13 0 -7 -9 -23 -20 -35 -11 -12 -20 -25 -20 -30 0 -5 -12 -22 -27 -39
-40 -43 -53 -68 -53 -107 0 -60 50 -77 94 -33 20 21 38 81 51 172 14 98 18
115 26 121 11 6 12 24 2 24 -5 -1 -14 -7 -20 -15z"/>
<path d="M8686 1168 c3 -18 8 -40 11 -48 4 -8 10 -42 15 -75 5 -33 11 -78 14
-99 10 -61 68 -107 108 -84 27 15 22 97 -10 133 -14 17 -33 42 -42 58 -9 15
-20 27 -24 27 -4 0 -8 6 -8 13 0 7 -9 23 -20 35 -11 12 -20 26 -20 32 0 6 -7
18 -15 26 -13 13 -14 11 -9 -18z"/>
<path d="M5793 1135 c-13 -13 -23 -31 -23 -40 0 -8 -4 -15 -9 -15 -20 0 -31
-153 -17 -215 24 -97 113 -205 171 -205 8 0 15 -4 15 -10 0 -6 27 -10 63 -9
68 1 116 21 132 57 5 12 13 22 17 22 13 0 8 104 -5 120 -58 70 -167 41 -167
-44 0 -19 6 -37 13 -39 9 -4 8 -8 -3 -16 -16 -12 -83 -4 -88 10 -2 5 -10 9
-18 9 -17 0 -83 89 -84 112 0 9 -4 20 -10 23 -5 3 -10 42 -10 86 0 46 4 79 10
79 6 0 10 6 10 13 0 18 24 67 33 67 4 0 7 5 7 10 0 16 -13 11 -37 -15z"/>
<path d="M7670 1155 c0 -3 9 -15 20 -27 11 -12 20 -30 20 -39 0 -10 5 -21 10
-24 6 -3 10 -44 10 -90 0 -46 -4 -87 -10 -90 -5 -3 -10 -15 -10 -26 0 -10 -4
-19 -10 -19 -5 0 -10 -6 -10 -12 0 -18 -40 -61 -70 -76 -14 -6 -41 -13 -60
-14 l-35 -3 3 50 c3 44 0 53 -22 73 -27 23 -96 32 -96 12 0 -5 -6 -10 -14 -10
-22 0 -46 -46 -46 -90 0 -44 33 -90 82 -116 29 -15 138 -19 138 -5 0 5 13 11
29 14 58 12 127 98 159 198 15 44 16 156 2 164 -5 3 -10 17 -10 31 0 13 -4 24
-10 24 -5 0 -10 7 -10 15 0 9 -11 27 -25 40 -23 24 -35 31 -35 20z"/>
</g>
</svg>
